<svg xmlns="http://www.w3.org/2000/svg" xmlns:xlink="http://www.w3.org/1999/xlink" width="500" zoomAndPan="magnify" viewBox="0 0 375 374.999991" height="500" preserveAspectRatio="xMidYMid meet" version="1.0"><defs><g/></defs><g fill="#000000" fill-opacity="1"><g transform="translate(13.001543, 208.335834)"><g><path d="M 17.800781 -17.9375 L 17.753906 -17.890625 C 17.617188 -17.800781 17.480469 -17.664062 17.386719 -17.527344 C 17.386719 -17.570312 17.433594 -17.617188 17.433594 -17.617188 C 17.847656 -18.074219 17.847656 -18.074219 17.480469 -18.578125 C 17.296875 -18.851562 17.066406 -19.082031 16.746094 -19.265625 C 16.335938 -19.492188 15.605469 -19.628906 15.144531 -19.539062 C 14.597656 -19.449219 14.140625 -19.035156 13.726562 -18.761719 C 12.8125 -18.121094 11.898438 -17.527344 10.980469 -16.929688 C 9.976562 -16.246094 9.058594 -15.464844 8.054688 -14.78125 C 7.320312 -14.324219 6.679688 -13.773438 5.996094 -13.222656 C 5.582031 -12.902344 4.757812 -12.492188 4.621094 -11.898438 C 4.484375 -11.484375 4.621094 -11.578125 4.988281 -11.300781 C 5.628906 -10.800781 6.222656 -10.113281 6.863281 -9.609375 C 7.640625 -9.015625 8.328125 -8.417969 9.105469 -7.871094 C 9.792969 -7.414062 10.296875 -7.277344 10.890625 -6.816406 C 11.347656 -6.496094 13.085938 -5.125 13.683594 -5.675781 C 14.09375 -5.949219 13.542969 -6.679688 13.316406 -7 C 12.035156 -8.558594 10.019531 -9.65625 8.28125 -10.617188 L 11.851562 -12.402344 C 12.996094 -12.996094 13.957031 -13.820312 15.054688 -14.460938 C 16.152344 -15.144531 18.347656 -16.246094 17.800781 -17.9375 Z M 14.003906 -14.460938 C 12.902344 -13.542969 11.667969 -12.8125 10.523438 -11.988281 C 11.53125 -12.765625 12.492188 -13.683594 13.589844 -14.460938 C 14.367188 -15.054688 15.238281 -15.648438 16.015625 -16.289062 Z M 14.003906 -14.460938 "/></g></g></g><g fill="#000000" fill-opacity="1"><g transform="translate(31.259214, 208.335834)"><g><path d="M 24.390625 -34.503906 C 22.972656 -34.089844 21.550781 -32.351562 20.546875 -31.34375 C 19.90625 -30.75 19.265625 -30.109375 18.667969 -29.421875 C 18.257812 -28.964844 17.207031 -28.050781 17.113281 -27.410156 C 17.160156 -27.363281 17.160156 -27.363281 17.207031 -27.363281 L 16.566406 -26.539062 C 16.519531 -26.496094 17.023438 -27.226562 17.023438 -27.226562 C 16.792969 -27.179688 16.382812 -26.3125 16.382812 -26.3125 C 15.101562 -24.664062 13.683594 -23.152344 12.492188 -21.414062 C 11.164062 -19.449219 10.066406 -17.433594 9.015625 -15.328125 C 9.609375 -17.527344 10.386719 -19.675781 11.257812 -21.78125 C 11.484375 -22.332031 14.003906 -28.277344 14.09375 -28.234375 C 13.957031 -28.277344 11.714844 -23.246094 11.578125 -22.972656 C 12.628906 -25.535156 13.773438 -28.050781 15.101562 -30.476562 C 15.007812 -30.292969 14.917969 -30.0625 14.964844 -30.0625 C 15.144531 -30.019531 16.0625 -31.800781 15.925781 -31.847656 L 15.785156 -31.757812 C 16.0625 -32.261719 16.199219 -32.535156 15.925781 -33.265625 C 15.648438 -34 14.964844 -35.28125 14.003906 -34.867188 C 13.40625 -34.640625 12.902344 -33.542969 12.675781 -33.082031 C 12.539062 -32.855469 12.492188 -32.488281 12.355469 -32.304688 C 12.171875 -32.03125 11.851562 -31.894531 11.578125 -31.527344 C 10.980469 -30.613281 10.570312 -29.515625 10.160156 -28.507812 C 9.929688 -27.957031 7.414062 -22.511719 7.503906 -22.46875 C 7.597656 -22.511719 7.640625 -22.605469 7.6875 -22.695312 C 7.550781 -22.285156 7.367188 -21.871094 7.183594 -21.460938 C 7.136719 -21.507812 7.320312 -21.828125 7.277344 -21.828125 C 6.816406 -21.917969 5.445312 -18.121094 5.355469 -17.753906 C 5.171875 -16.886719 4.941406 -16.105469 4.574219 -15.238281 C 4.347656 -14.6875 4.117188 -14.140625 3.933594 -13.589844 C 3.933594 -13.542969 3.707031 -12.402344 3.890625 -12.8125 C 3.890625 -12.675781 3.84375 -12.582031 3.796875 -12.445312 C 3.796875 -12.492188 3.796875 -12.582031 3.753906 -12.628906 C 3.660156 -12.582031 3.433594 -11.347656 3.386719 -11.300781 C 3.203125 -10.84375 2.929688 -10.433594 2.746094 -9.976562 C 2.152344 -8.695312 1.785156 -7.277344 1.464844 -5.902344 L 0.503906 -1.234375 C 0.320312 -0.367188 -0.410156 1.601562 0.273438 2.472656 C 0.273438 2.378906 0.273438 2.332031 0.320312 2.289062 C 0.320312 2.332031 0.320312 2.425781 0.367188 2.515625 C 0.777344 4.027344 3.25 3.570312 4.074219 2.699219 C 4.074219 2.792969 4.117188 2.835938 4.164062 2.882812 C 4.484375 0.320312 5.398438 -2.289062 6.316406 -4.714844 C 6.679688 -5.765625 7.046875 -7.503906 7.777344 -8.328125 C 7.824219 -8.785156 8.054688 -8.921875 8.417969 -8.695312 C 8.695312 -8.648438 9.015625 -8.601562 9.289062 -8.601562 C 9.5625 -8.558594 9.929688 -8.558594 10.25 -8.601562 C 12.171875 -8.921875 14.230469 -10.203125 15.878906 -11.210938 C 16.519531 -11.578125 16.976562 -12.125 17.570312 -12.445312 C 18.210938 -12.8125 18.851562 -12.996094 19.492188 -13.5 C 21.230469 -14.824219 22.652344 -16.335938 24.023438 -18.027344 C 25.394531 -19.675781 26.585938 -21.371094 27.410156 -23.382812 C 27.867188 -24.390625 28.234375 -25.488281 28.554688 -26.585938 C 28.644531 -26.996094 28.964844 -27.59375 28.875 -28.003906 C 28.875 -28.003906 28.738281 -27.683594 28.644531 -27.457031 C 28.78125 -28.234375 28.875 -28.964844 28.828125 -29.789062 C 28.875 -29.605469 28.964844 -29.332031 28.917969 -29.285156 C 29.011719 -29.332031 28.964844 -29.925781 28.964844 -30.199219 C 28.964844 -30.109375 28.917969 -30.519531 28.964844 -30.382812 C 28.78125 -32.582031 26.769531 -35.1875 24.390625 -34.503906 Z M 24.34375 -28.917969 C 24.296875 -28.738281 24.296875 -28.78125 24.34375 -28.875 C 24.113281 -25.714844 22.332031 -22.605469 20.546875 -20.089844 C 19.628906 -18.761719 18.578125 -17.527344 17.480469 -16.335938 C 16.976562 -15.832031 16.425781 -15.328125 15.878906 -14.871094 C 15.464844 -14.460938 14.597656 -14.003906 14.183594 -13.5 C 14.550781 -13.863281 15.375 -14.324219 15.742188 -14.597656 C 16.472656 -15.238281 17.207031 -15.96875 17.890625 -16.65625 C 18.988281 -17.847656 20.042969 -19.082031 20.957031 -20.410156 C 18.167969 -16.246094 14.324219 -12.628906 9.699219 -10.707031 C 10.066406 -10.9375 10.980469 -11.394531 10.980469 -11.441406 C 10.890625 -11.53125 9.058594 -10.707031 8.878906 -10.617188 C 9.472656 -11.804688 10.066406 -12.996094 10.707031 -14.183594 C 10.890625 -14.460938 12.355469 -17.25 12.355469 -17.25 C 12.261719 -17.25 12.171875 -17.207031 12.125 -17.066406 C 14.140625 -20.316406 16.792969 -23.566406 19.265625 -26.539062 C 20.042969 -27.457031 24.574219 -33.359375 24.34375 -28.964844 Z M 1.832031 -5.261719 C 2.289062 -7.230469 3.25 -8.558594 3.84375 -10.339844 C 3.019531 -7.6875 2.011719 -4.988281 1.234375 -2.378906 C 1.417969 -3.292969 1.601562 -4.4375 1.832031 -5.261719 Z M 0.914062 0.59375 C 0.871094 0.777344 0.550781 1.007812 0.503906 1.234375 C 0.640625 0.457031 0.777344 -0.230469 0.960938 -0.960938 C 0.871094 -0.457031 1.007812 0.0898438 0.914062 0.59375 Z M 10.980469 -21.460938 L 10.019531 -19.082031 L 10.9375 -21.414062 Z M 11.027344 -21.644531 C 11.027344 -21.550781 10.980469 -21.550781 10.980469 -21.507812 C 10.980469 -21.550781 10.980469 -21.550781 11.027344 -21.644531 Z M 11.121094 -21.828125 L 11.074219 -21.78125 L 11.121094 -21.871094 Z M 11.714844 -16.425781 C 11.714844 -16.472656 11.761719 -16.472656 11.761719 -16.519531 C 11.761719 -16.472656 11.714844 -16.425781 11.714844 -16.425781 Z M 11.714844 -16.425781 "/></g></g></g><g fill="#000000" fill-opacity="1"><g transform="translate(54.367292, 208.335834)"><g><path d="M 23.292969 -11.027344 C 23.246094 -12.035156 22.421875 -11.164062 22.148438 -10.800781 C 21.550781 -9.929688 21.003906 -9.015625 20.453125 -8.144531 C 19.21875 -6.269531 17.984375 -4.394531 16.566406 -2.609375 C 11.851562 3.203125 15.144531 -7.136719 14.78125 -7.046875 C 14.597656 -7 14.460938 -6.316406 14.414062 -6.175781 C 14.78125 -7.824219 15.464844 -9.792969 16.335938 -11.394531 C 16.839844 -12.402344 17.433594 -13.222656 16.519531 -14.324219 C 14.824219 -16.382812 12.859375 -14.503906 11.761719 -13.085938 C 11.300781 -14.824219 10.386719 -17.386719 8.144531 -17.386719 C 7.136719 -17.386719 6.542969 -16.886719 5.855469 -16.289062 C 5.445312 -16.015625 5.125 -15.96875 4.757812 -15.648438 C 4.164062 -15.238281 3.753906 -14.597656 3.339844 -14.046875 C 1.785156 -11.761719 0.6875 -8.878906 0.183594 -6.222656 C -0.046875 -4.941406 -0.136719 -3.523438 0.230469 -2.242188 C 0.457031 -1.511719 1.28125 0.136719 2.332031 0 C 2.378906 0 2.289062 -0.046875 2.152344 -0.136719 C 2.792969 0.046875 3.523438 -0.046875 4.074219 -0.410156 C 4.117188 -0.320312 3.570312 -0.0898438 3.570312 -0.0898438 C 4.074219 0.6875 7.824219 -3.84375 8.097656 -4.253906 C 8.695312 -5.078125 9.105469 -5.949219 9.65625 -6.816406 C 10.066406 -7.457031 10.707031 -8.28125 11.164062 -8.96875 C 11.121094 -8.648438 11.121094 -8.238281 11.121094 -8.238281 C 10.296875 -5.628906 9.519531 -2.792969 10.617188 -0.0898438 C 11.121094 1.28125 12.355469 2.5625 13.910156 2.289062 C 15.285156 2.058594 16.425781 0.730469 17.25 -0.320312 C 18.257812 -1.511719 19.128906 -2.835938 19.996094 -4.210938 C 20.730469 -5.445312 21.414062 -6.679688 22.011719 -8.054688 C 22.375 -8.921875 23.382812 -9.976562 23.292969 -11.027344 Z M 10.160156 -10.707031 C 9.929688 -10.386719 9.699219 -10.066406 9.519531 -9.746094 L 8.328125 -8.054688 C 7.550781 -6.910156 6.726562 -5.8125 5.855469 -4.757812 C 5.628906 -4.4375 4.53125 -3.019531 4.074219 -3.15625 C 3.386719 -3.386719 4.117188 -5.765625 4.210938 -6.132812 C 4.347656 -6.773438 6.773438 -13.820312 7.414062 -13.957031 C 6.589844 -14.003906 3.933594 -5.71875 3.796875 -5.035156 C 4.164062 -7.277344 4.988281 -9.472656 5.902344 -11.53125 C 6.40625 -12.582031 7.550781 -15.375 9.058594 -15.375 C 9.882812 -15.375 10.066406 -13.683594 10.203125 -13.132812 C 10.160156 -13.222656 9.746094 -14.550781 9.699219 -14.503906 C 9.472656 -14.324219 10.386719 -11.804688 10.386719 -11.441406 C 10.386719 -11.074219 10.386719 -11.074219 10.160156 -10.707031 Z M 11.210938 -8.464844 C 11.210938 -8.464844 11.347656 -9.105469 11.394531 -9.242188 L 11.621094 -9.5625 Z M 10.523438 -11.300781 L 10.523438 -11.761719 C 10.660156 -11.578125 10.660156 -11.441406 10.523438 -11.300781 Z M 10.523438 -11.300781 "/></g></g><g transform="translate(74.318028, 208.335834)"><g><path d="M 31.253906 -10.753906 C 31.160156 -11.714844 30.0625 -11.300781 29.558594 -10.980469 C 29.011719 -10.570312 28.78125 -9.929688 28.371094 -9.472656 C 27.683594 -8.695312 26.769531 -8.007812 25.855469 -7.550781 C 25.351562 -7.367188 24.984375 -6.957031 24.617188 -6.773438 C 24.113281 -6.40625 23.335938 -6.542969 22.789062 -6.542969 C 23.472656 -8.238281 23.933594 -10.066406 24.9375 -11.578125 C 25.394531 -12.171875 25.945312 -12.859375 25.714844 -13.683594 C 25.535156 -14.230469 24.984375 -14.644531 24.433594 -14.414062 C 24.296875 -14.367188 24.253906 -14.230469 24.113281 -14.140625 C 23.335938 -13.40625 22.46875 -12.492188 21.871094 -11.578125 C 21.324219 -10.707031 20.957031 -9.792969 20.730469 -8.785156 C 20.683594 -8.601562 20.636719 -6.222656 20.589844 -6.222656 L 20.773438 -6.359375 C 20.820312 -6.085938 19.859375 -4.851562 19.628906 -4.484375 C 19.128906 -3.570312 18.625 -2.652344 18.074219 -1.738281 C 17.617188 -0.960938 16.289062 2.242188 15.191406 2.105469 C 12.859375 1.875 16.015625 -7.734375 15.925781 -7.777344 C 15.695312 -7.824219 14.6875 -3.339844 14.550781 -2.5625 C 14.964844 -5.171875 15.648438 -7.777344 16.519531 -10.25 C 16.472656 -10.019531 16.382812 -9.65625 16.425781 -9.65625 C 16.609375 -9.609375 17.207031 -11.394531 17.113281 -11.394531 L 16.886719 -11.257812 C 17.023438 -11.484375 17.34375 -11.578125 17.386719 -11.898438 C 17.480469 -12.445312 17.113281 -12.859375 16.703125 -13.132812 C 15.742188 -13.820312 14.460938 -13.40625 13.726562 -12.582031 C 13.179688 -11.898438 12.722656 -11.027344 12.21875 -10.296875 C 11.761719 -9.65625 11.300781 -9.058594 10.890625 -8.417969 C 10.753906 -8.238281 9.65625 -6.542969 9.746094 -6.542969 C 9.839844 -6.589844 9.929688 -6.636719 10.019531 -6.726562 C 9.152344 -5.582031 7.824219 -4.253906 6.726562 -3.203125 C 6.269531 -2.792969 5.171875 -1.417969 4.4375 -1.554688 C 2.152344 -1.96875 6.636719 -11.121094 6.542969 -11.164062 C 6.40625 -11.210938 4.757812 -7.046875 4.621094 -6.726562 C 5.398438 -9.015625 6.40625 -11.210938 7.414062 -13.40625 C 7.457031 -13.40625 7.183594 -12.722656 7.230469 -12.722656 C 7.367188 -12.675781 8.097656 -14.183594 7.917969 -14.230469 L 7.777344 -14.09375 C 7.917969 -14.324219 8.144531 -14.367188 8.191406 -14.644531 C 8.328125 -15.191406 7.917969 -15.695312 7.503906 -15.96875 C 6.453125 -16.65625 4.941406 -16.105469 4.394531 -15.054688 C 4.253906 -14.824219 4.300781 -14.550781 4.074219 -14.324219 C 3.980469 -14.183594 3.613281 -14.046875 3.433594 -13.726562 C 2.929688 -12.902344 2.652344 -11.898438 2.332031 -10.980469 C 2.195312 -10.617188 0.59375 -6.085938 0.777344 -6.039062 C 0.777344 -6.039062 0.871094 -6.085938 0.871094 -6.132812 C 0.777344 -5.855469 0.730469 -5.492188 0.6875 -5.171875 C 0.59375 -5.171875 0.730469 -5.445312 0.640625 -5.445312 C 0.367188 -5.492188 0 -3.15625 0 -3.066406 C -0.046875 -2.152344 0.183594 -1.28125 0.59375 -0.503906 C 0.914062 0 1.234375 0.410156 1.785156 0.59375 C 2.105469 0.730469 2.472656 0.777344 2.835938 0.730469 C 2.929688 0.730469 3.753906 0.457031 3.386719 0.457031 L 3.84375 0.320312 L 3.570312 0.457031 C 3.613281 0.503906 4.894531 -0.136719 5.078125 -0.183594 C 6.039062 -0.59375 6.863281 -1.28125 7.597656 -2.011719 C 9.015625 -3.523438 10.25 -5.355469 11.53125 -7.046875 C 11.441406 -6.542969 10.296875 -0.824219 10.617188 -0.824219 L 10.707031 -1.007812 C 10.707031 -0.59375 10.707031 -0.183594 10.753906 0.183594 C 10.660156 0.183594 10.707031 -0.136719 10.617188 -0.136719 C 10.339844 -0.0898438 10.660156 1.832031 10.707031 2.011719 C 10.9375 2.792969 11.300781 3.570312 12.035156 3.933594 C 12.765625 4.300781 13.863281 4.347656 14.6875 4.210938 C 15.238281 4.117188 15.832031 3.890625 16.289062 3.523438 C 16.335938 3.476562 16.976562 2.792969 16.792969 2.835938 L 17.023438 2.699219 C 16.976562 2.746094 16.976562 2.792969 16.976562 2.835938 C 17.023438 2.882812 18.394531 1.417969 18.578125 1.28125 C 19.449219 0.503906 20.132812 -0.640625 20.636719 -1.648438 L 21.414062 -3.339844 L 21.78125 -4.253906 C 21.917969 -4.484375 22.011719 -4.714844 22.101562 -4.941406 C 22.191406 -4.941406 22.332031 -4.894531 22.421875 -4.894531 C 23.335938 -5.078125 24.253906 -4.757812 25.167969 -5.078125 C 27.089844 -5.675781 28.460938 -7.320312 29.742188 -8.648438 C 30.109375 -9.015625 31.34375 -10.019531 31.253906 -10.753906 Z M 11.121094 -1.007812 C 11.210938 -2.152344 11.53125 -3.25 11.851562 -4.347656 C 11.621094 -3.066406 11.441406 -1.832031 11.394531 -0.640625 C 11.300781 0.824219 11.300781 3.15625 12.8125 3.890625 C 11.164062 3.15625 10.980469 0.59375 11.121094 -1.007812 Z M 13.453125 -9.058594 C 13.40625 -8.96875 13.40625 -8.96875 13.40625 -9.015625 C 13.085938 -8.417969 12.859375 -7.777344 12.628906 -7.136719 C 12.902344 -8.097656 13.222656 -9.058594 13.863281 -9.792969 C 13.726562 -9.5625 13.542969 -9.289062 13.453125 -9.058594 Z M 4.117188 -5.171875 L 3.796875 -3.707031 C 3.796875 -3.753906 3.753906 -3.707031 3.753906 -3.707031 Z M 4.117188 -5.171875 "/></g></g><g transform="translate(102.230756, 208.335834)"><g><path d="M 17.527344 -11.300781 C 17.527344 -11.257812 17.527344 -11.257812 17.480469 -11.300781 L 17.480469 -11.347656 C 16.746094 -12.582031 15.785156 -10.890625 15.375 -10.296875 C 14.597656 -9.242188 13.863281 -8.238281 13.042969 -7.277344 C 12.355469 -6.453125 11.621094 -5.628906 11.074219 -4.757812 C 11.074219 -4.667969 10.980469 -4.4375 10.980469 -4.4375 C 10.800781 -4.164062 10.523438 -3.933594 10.296875 -3.660156 C 9.882812 -3.25 9.472656 -2.792969 9.015625 -2.378906 C 8.328125 -1.738281 4.484375 1.875 3.980469 -0.457031 C 3.707031 -1.601562 4.074219 -3.019531 4.300781 -4.117188 C 4.4375 -4.714844 4.574219 -5.261719 4.667969 -5.855469 C 4.757812 -6.316406 4.621094 -6.773438 4.851562 -7.230469 C 4.988281 -7.503906 5.035156 -7.457031 5.355469 -7.550781 L 6.132812 -7.824219 C 6.636719 -8.007812 7.136719 -8.191406 7.597656 -8.464844 C 8.28125 -8.878906 8.921875 -9.378906 9.519531 -9.882812 C 10.9375 -11.074219 12.445312 -12.492188 13.042969 -14.277344 C 13.363281 -15.285156 13.40625 -16.382812 12.765625 -17.25 C 12.171875 -18.027344 11.164062 -18.441406 10.25 -18.625 C 7.777344 -19.082031 5.902344 -17.664062 4.484375 -15.785156 C 2.746094 -13.636719 1.511719 -10.980469 0.914062 -8.28125 C 0.59375 -6.957031 0.410156 -5.628906 0.183594 -4.253906 C -0.046875 -2.882812 -0.183594 -1.601562 0.550781 -0.320312 C 0.503906 -0.777344 0.410156 -1.191406 0.410156 -1.601562 C 0.410156 -1.832031 0.503906 -2.058594 0.503906 -2.242188 C 0.503906 -2.332031 0.410156 -2.609375 0.410156 -2.746094 C 0.410156 -3.15625 0.503906 -3.476562 0.59375 -3.890625 C 0.640625 -4.300781 0.59375 -4.714844 0.640625 -5.125 C 0.6875 -5.582031 0.871094 -5.949219 1.050781 -6.359375 C 1.191406 -6.726562 1.234375 -7.046875 1.371094 -7.414062 C 1.511719 -7.734375 1.601562 -8.097656 1.738281 -8.464844 C 1.785156 -8.695312 2.011719 -8.96875 2.152344 -9.242188 C 2.011719 -8.832031 1.738281 -8.464844 1.648438 -8.097656 C 1.511719 -7.550781 1.601562 -6.957031 1.554688 -6.40625 C 1.464844 -5.8125 1.28125 -5.214844 1.191406 -4.574219 C 1.097656 -3.980469 0.824219 -3.433594 0.730469 -2.835938 C 0.640625 -2.289062 0.457031 -1.875 0.503906 -1.328125 C 0.503906 -1.007812 0.550781 -0.6875 0.59375 -0.410156 C 0.640625 -0.046875 0.871094 0.183594 1.097656 0.457031 C 1.875 1.371094 2.929688 2.105469 4.117188 2.425781 C 4.941406 2.652344 5.675781 2.609375 6.453125 2.195312 C 7.550781 1.601562 8.511719 0.6875 9.335938 -0.183594 C 10.113281 -1.050781 10.707031 -2.011719 11.394531 -2.929688 C 12.035156 -3.753906 12.8125 -4.53125 13.453125 -5.355469 L 15.925781 -8.558594 L 17.34375 -10.433594 C 17.570312 -10.707031 17.707031 -10.9375 17.527344 -11.300781 Z M 6.175781 -10.800781 C 6.222656 -10.890625 6.222656 -10.9375 6.222656 -10.9375 C 6.910156 -12.402344 7.414062 -13.957031 8.375 -15.375 L 9.199219 -16.472656 C 9.378906 -16.703125 9.699219 -17.113281 10.019531 -17.207031 C 10.707031 -17.34375 10.890625 -16.152344 10.84375 -15.695312 L 10.660156 -14.734375 C 10.617188 -14.460938 10.707031 -14.277344 10.660156 -14.046875 C 10.570312 -13.773438 10.339844 -13.636719 10.203125 -13.40625 L 9.425781 -12.402344 C 8.375 -11.164062 7.046875 -10.113281 5.582031 -9.335938 C 5.8125 -9.839844 5.949219 -10.339844 6.175781 -10.800781 Z M 6.175781 -10.800781 "/></g></g><g transform="translate(116.461672, 208.335834)"><g><path d="M 18.304688 -11.667969 C 17.664062 -10.980469 17.25 -9.839844 16.746094 -9.015625 C 15.96875 -7.6875 15.191406 -6.40625 14.367188 -5.125 C 12.8125 -2.652344 11.257812 -0.136719 9.378906 2.105469 C 8.601562 3.066406 6.957031 5.398438 5.398438 5.214844 C 4.253906 5.035156 4.253906 3.066406 4.253906 2.195312 C 4.253906 1.464844 4.300781 0.730469 4.394531 0.046875 C 4.4375 -0.367188 4.804688 -1.738281 4.574219 -2.105469 L 4.210938 -0.730469 C 4.253906 -1.28125 4.347656 -1.875 4.484375 -2.425781 C 4.4375 -2.515625 4.851562 -3.796875 4.941406 -4.210938 C 5.171875 -5.125 5.398438 -6.039062 5.675781 -6.957031 C 5.902344 -7.871094 6.132812 -8.738281 6.40625 -9.609375 C 6.636719 -10.433594 6.957031 -10.84375 7.457031 -11.484375 C 9.519531 -14.046875 11.394531 -16.839844 13.132812 -19.628906 C 13.773438 -20.683594 14.183594 -21.597656 14.964844 -22.46875 C 16.105469 -23.65625 16.886719 -25.441406 17.617188 -26.90625 C 18.851562 -29.285156 20.5 -32.582031 20.226562 -35.371094 L 20.226562 -35.601562 L 20.179688 -35.644531 C 19.90625 -37.429688 18.257812 -39.535156 16.246094 -38.894531 C 15.191406 -38.574219 14.414062 -37.476562 13.773438 -36.699219 L 12.722656 -35.28125 C 12.492188 -35.003906 12.171875 -34.320312 11.941406 -33.953125 L 11.988281 -34 L 10.523438 -31.480469 L 10.890625 -32.261719 C 10.660156 -32.304688 9.65625 -30.339844 9.519531 -30.109375 C 9.015625 -29.238281 8.558594 -28.371094 8.144531 -27.5 C 7.230469 -25.671875 6.316406 -23.792969 5.71875 -21.828125 C 5.078125 -19.859375 4.347656 -17.9375 3.660156 -15.96875 C 3.292969 -14.917969 2.929688 -13.820312 2.609375 -12.765625 C 2.332031 -11.898438 1.691406 -10.480469 1.832031 -9.5625 L 1.96875 -9.5625 C 1.832031 -9.242188 1.738281 -8.921875 1.648438 -8.601562 C 1.691406 -8.878906 1.691406 -9.199219 1.738281 -9.289062 C 1.511719 -8.96875 1.554688 -7.871094 1.511719 -7.777344 C 0.914062 -5.308594 0.230469 -2.835938 0.046875 -0.273438 C -0.0898438 2.152344 -0.0898438 5.355469 1.832031 7.136719 C 3.980469 9.105469 6.453125 7.777344 8.238281 6.085938 C 10.339844 4.027344 12.125 1.601562 13.773438 -0.777344 C 15.285156 -2.972656 16.472656 -5.308594 17.847656 -7.503906 C 18.394531 -8.417969 18.988281 -9.335938 19.265625 -10.339844 C 19.449219 -11.074219 19.355469 -12.765625 18.304688 -11.667969 Z M 12.582031 -28.050781 C 13.5 -30.246094 14.414062 -32.488281 15.695312 -34.546875 C 16.015625 -35.050781 18.074219 -37.796875 17.984375 -35.371094 L 17.984375 -35.324219 C 17.890625 -32.761719 16.246094 -30.0625 15.144531 -27.867188 L 13.222656 -24.296875 C 12.582031 -23.199219 11.484375 -21.828125 11.121094 -20.636719 C 11.394531 -21.371094 12.21875 -22.421875 12.628906 -23.109375 C 13.316406 -24.253906 13.910156 -25.394531 14.550781 -26.539062 C 15.605469 -28.554688 16.746094 -30.660156 17.527344 -32.855469 C 15.464844 -26.722656 11.621094 -21.003906 8.238281 -15.558594 C 9.5625 -19.585938 10.890625 -23.976562 12.582031 -28.050781 Z M 11.121094 -31.253906 C 11.578125 -32.121094 12.402344 -32.855469 12.859375 -33.679688 C 11.898438 -31.757812 10.707031 -30.019531 9.699219 -28.1875 C 9.699219 -28.234375 9.699219 -28.324219 9.746094 -28.371094 C 10.160156 -29.378906 10.617188 -30.292969 11.121094 -31.253906 Z M 2.472656 -7.597656 C 2.425781 -7.503906 2.425781 -7.457031 2.425781 -7.457031 C 1.875 -6.175781 1.832031 -4.4375 1.554688 -3.066406 C 1.511719 -2.746094 1.417969 -2.472656 1.417969 -2.152344 L 1.417969 -2.289062 L 1.28125 -0.824219 C 1.371094 -2.472656 1.554688 -4.164062 1.875 -5.765625 L 1.875 -5.71875 C 2.011719 -6.773438 2.242188 -7.734375 2.425781 -7.734375 C 2.515625 -7.777344 2.515625 -7.640625 2.472656 -7.597656 Z M 2.472656 -7.597656 "/></g></g><g transform="translate(132.660206, 208.335834)"><g/></g><g transform="translate(145.472605, 208.335834)"><g><path d="M 27.457031 -33.769531 C 26.816406 -34.320312 26.035156 -34.683594 25.214844 -35.003906 C 23.152344 -35.875 21.1875 -36.242188 18.988281 -35.691406 C 16.886719 -35.144531 14.871094 -34.042969 13.269531 -32.582031 C 12.171875 -31.574219 10.25 -29.878906 10.019531 -28.277344 L 10.339844 -28.738281 C 9.882812 -27.867188 9.5625 -26.996094 9.378906 -26.175781 C 9.335938 -26.175781 9.472656 -26.90625 9.519531 -26.90625 C 8.785156 -26.90625 9.015625 -24.113281 9.058594 -23.703125 C 9.152344 -21.828125 9.65625 -19.90625 10.386719 -18.167969 C 11.394531 -15.785156 12.492188 -13.453125 13.40625 -11.074219 L 14.230469 -9.015625 C 14.324219 -8.695312 14.460938 -8.328125 14.597656 -8.007812 C 14.644531 -8.007812 14.824219 -7.640625 14.824219 -7.6875 C 14.871094 -7.320312 14.964844 -7.046875 15.054688 -6.726562 C 14.964844 -6.957031 14.78125 -7.277344 14.78125 -7.457031 C 14.6875 -7.136719 14.964844 -6.726562 15.054688 -6.496094 C 15.144531 -6.039062 15.191406 -5.628906 15.191406 -5.171875 C 15.101562 -3.980469 14.6875 -2.835938 14.09375 -1.832031 C 12.902344 0.136719 10.9375 1.738281 8.738281 2.425781 C 7.136719 2.882812 5.171875 2.882812 4.4375 1.144531 C 3.796875 -0.273438 4.074219 -2.011719 4.394531 -3.476562 C 4.574219 -4.300781 4.804688 -5.125 5.171875 -5.902344 C 5.445312 -6.636719 6.910156 -8.601562 6.496094 -9.335938 C 5.492188 -11.121094 2.105469 -6.636719 1.648438 -5.902344 C -0.273438 -2.792969 -1.191406 2.289062 2.746094 4.300781 C 5.492188 5.675781 9.105469 5.445312 11.851562 4.347656 C 12.8125 3.980469 16.976562 2.242188 16.929688 0.871094 L 16.015625 1.511719 C 19.171875 -1.234375 20.453125 -4.574219 19.21875 -8.695312 C 18.625 -10.617188 17.527344 -12.171875 16.472656 -13.863281 C 15.695312 -15.238281 15.464844 -16.566406 14.824219 -17.984375 C 15.695312 -16.246094 16.746094 -14.550781 17.664062 -12.8125 C 15.785156 -17.113281 12.171875 -22.238281 14.597656 -27.042969 C 15.695312 -29.195312 17.664062 -30.980469 19.8125 -32.03125 C 21.050781 -32.625 22.511719 -33.128906 23.933594 -33.082031 C 25.625 -32.945312 25.257812 -31.847656 25.257812 -30.703125 C 25.351562 -31.390625 25.761719 -32.121094 25.074219 -32.808594 C 24.433594 -33.359375 23.382812 -33.175781 22.605469 -33.039062 C 20.820312 -32.71875 19.171875 -31.984375 17.753906 -30.933594 C 18.761719 -31.710938 19.90625 -32.351562 21.09375 -32.761719 C 22.148438 -33.128906 23.703125 -33.585938 24.753906 -33.128906 C 27.363281 -31.941406 24.023438 -26.953125 22.789062 -25.257812 C 23.015625 -25.671875 23.382812 -26.449219 23.472656 -26.539062 C 22.832031 -26.585938 21.550781 -23.382812 21.230469 -23.199219 C 20.132812 -22.054688 21.460938 -21.917969 22.375 -22.46875 C 23.382812 -23.0625 24.207031 -24.023438 24.984375 -24.800781 C 26.035156 -25.898438 26.996094 -27.042969 27.820312 -28.277344 C 28.371094 -29.101562 29.378906 -30.429688 28.828125 -31.4375 C 28.460938 -32.304688 28.234375 -33.128906 27.457031 -33.769531 Z M 1.875 3.292969 C -0.503906 0.320312 0.59375 -3.613281 2.746094 -6.542969 C 0.871094 -3.84375 0.0898438 1.050781 1.875 3.292969 Z M 13.683594 -23.335938 C 13.726562 -23.109375 13.683594 -22.878906 13.683594 -22.695312 Z M 13.683594 -23.335938 "/></g></g><g transform="translate(168.306132, 208.335834)"><g><path d="M 27.820312 -10.980469 C 27.820312 -10.980469 27.867188 -10.9375 27.820312 -11.027344 C 27.5 -12.035156 25.488281 -9.289062 25.257812 -9.015625 C 24.070312 -7.597656 22.878906 -6.132812 21.644531 -4.757812 C 21.140625 -4.210938 19.355469 -1.738281 18.488281 -1.921875 C 18.074219 -2.011719 18.394531 -4.210938 18.394531 -4.210938 C 18.304688 -4.117188 18.257812 -4.027344 18.210938 -3.933594 C 18.578125 -5.675781 19.628906 -7.734375 20.363281 -9.472656 C 21.140625 -11.441406 22.285156 -14.003906 21.691406 -16.199219 C 21.003906 -18.714844 18.394531 -17.433594 17.160156 -16.246094 C 16.703125 -15.785156 12.902344 -10.84375 12.949219 -10.523438 L 13.863281 -11.761719 C 13.132812 -10.617188 12.445312 -9.519531 11.898438 -8.375 C 12.355469 -9.976562 12.8125 -11.621094 13.363281 -13.222656 C 13.773438 -14.324219 14.460938 -15.464844 14.78125 -16.609375 C 15.144531 -18.074219 13.863281 -20.089844 12.21875 -19.859375 C 11.027344 -19.722656 10.019531 -18.347656 9.425781 -17.386719 C 8.695312 -16.199219 7.824219 -15.101562 7.09375 -13.957031 C 6.222656 -12.539062 5.492188 -10.980469 4.757812 -9.519531 C 4.117188 -8.328125 3.796875 -6.957031 3.113281 -5.855469 C 3.203125 -6.359375 3.019531 -6.726562 3.019531 -7.183594 C 3.019531 -7.597656 3.203125 -8.097656 3.292969 -8.511719 C 3.433594 -9.152344 3.796875 -9.699219 3.933594 -10.339844 C 4.027344 -10.660156 3.933594 -10.800781 4.027344 -11.121094 C 4.074219 -11.347656 4.300781 -11.621094 4.4375 -11.804688 C 4.757812 -12.261719 5.171875 -12.675781 5.445312 -13.132812 C 5.492188 -13.222656 5.582031 -13.316406 5.582031 -13.40625 C 5.765625 -14.046875 5.308594 -14.277344 5.078125 -14.597656 C 4.851562 -14.871094 4.621094 -15.464844 4.253906 -15.785156 C 3.980469 -16.015625 3.523438 -16.289062 3.203125 -16.152344 C 2.792969 -15.96875 2.972656 -15.742188 2.835938 -15.511719 C 2.652344 -15.054688 2.289062 -14.6875 2.058594 -14.277344 C 1.691406 -13.5 1.371094 -12.722656 1.144531 -11.941406 C 0.59375 -10.339844 -0.046875 -8.695312 0.046875 -7 C 0.0898438 -5.71875 -0.273438 -4.667969 0.6875 -3.523438 C 1.144531 -2.972656 2.929688 -1.785156 3.386719 -2.609375 C 3.433594 -2.699219 3.476562 -3.066406 3.476562 -3.203125 C 3.613281 -3.660156 3.933594 -4.074219 4.117188 -4.53125 C 4.574219 -5.445312 4.988281 -6.40625 5.492188 -7.367188 C 6.773438 -9.792969 7.734375 -12.125 9.242188 -14.460938 C 9.699219 -15.144531 10.25 -15.832031 10.800781 -16.472656 C 10.9375 -16.609375 11.621094 -17.570312 11.714844 -17.527344 C 12.445312 -17.480469 10.980469 -14.6875 10.84375 -14.183594 C 10.25 -12.628906 9.199219 -11.027344 9.015625 -9.378906 C 8.96875 -8.832031 9.105469 -8.648438 8.96875 -8.144531 C 8.832031 -7.597656 8.601562 -7 8.648438 -6.40625 C 8.738281 -5.855469 8.96875 -5.355469 9.378906 -4.988281 C 10.84375 -3.570312 11.441406 -5.214844 12.082031 -6.316406 C 12.859375 -7.597656 13.589844 -9.425781 14.550781 -10.386719 C 16.0625 -11.851562 16.839844 -13.820312 18.347656 -15.238281 C 18.121094 -14.734375 16.839844 -11.621094 16.886719 -11.578125 C 16.976562 -11.667969 17.023438 -11.761719 17.066406 -11.851562 C 16.886719 -11.347656 16.703125 -10.890625 16.566406 -10.433594 C 16.472656 -10.480469 16.65625 -10.84375 16.609375 -10.84375 C 16.335938 -10.890625 15.511719 -8.328125 15.464844 -8.144531 C 15.144531 -7.230469 15.007812 -6.359375 15.007812 -5.398438 C 15.007812 -4.53125 15.007812 -3.660156 15.144531 -2.746094 C 15.238281 -2.195312 15.375 -1.601562 15.648438 -1.097656 C 15.742188 -0.871094 16.382812 -0.230469 16.382812 -0.320312 C 16.425781 -0.230469 16.425781 -0.136719 16.519531 -0.0898438 L 16.472656 -0.136719 C 16.382812 0.230469 18.304688 0.871094 18.625 0.824219 C 20.226562 0.777344 21.828125 -1.371094 22.695312 -2.515625 C 23.976562 -4.074219 25.121094 -5.765625 26.265625 -7.414062 C 26.859375 -8.28125 28.097656 -9.792969 27.820312 -10.980469 Z M 11.394531 -14.003906 L 11.441406 -14.003906 C 11.394531 -13.957031 11.347656 -13.863281 11.347656 -13.863281 C 10.800781 -12.722656 10.523438 -11.394531 10.066406 -10.160156 C 9.699219 -9.242188 9.242188 -8.144531 9.152344 -7.136719 C 9.152344 -8.191406 9.472656 -9.425781 9.792969 -10.339844 C 10.160156 -11.441406 10.707031 -12.492188 11.164062 -13.542969 C 11.347656 -13.910156 12.445312 -16.746094 12.261719 -17.480469 C 12.539062 -16.839844 11.714844 -14.6875 11.441406 -14.003906 L 11.441406 -14.046875 Z M 11.394531 -14.003906 "/></g></g><g transform="translate(192.786967, 208.335834)"><g><path d="M 21.050781 -11.394531 C 21.050781 -11.394531 21.09375 -11.347656 21.050781 -11.441406 C 20.820312 -11.761719 20.5 -11.53125 20.179688 -11.441406 C 18.851562 -11.164062 17.480469 -10.84375 16.105469 -10.617188 C 16.609375 -12.261719 17.113281 -14.003906 17.296875 -15.695312 C 17.386719 -16.335938 17.433594 -17.023438 17.296875 -17.664062 C 17.207031 -18.074219 17.066406 -18.488281 16.839844 -18.851562 C 16.839844 -18.851562 16.289062 -19.539062 16.425781 -19.171875 L 16.382812 -19.21875 L 16.199219 -19.585938 L 16.382812 -19.402344 C 16.425781 -19.675781 15.648438 -20.179688 15.648438 -20.179688 C 14.503906 -21.324219 12.949219 -22.191406 11.394531 -21.324219 C 10.433594 -20.773438 9.65625 -19.859375 9.015625 -18.945312 C 8.785156 -18.625 8.558594 -18.257812 8.375 -17.890625 C 8.191406 -17.527344 7.917969 -16.335938 7.640625 -16.152344 C 7.414062 -15.96875 6.726562 -15.925781 6.40625 -15.742188 C 5.949219 -15.558594 5.535156 -15.328125 5.171875 -15.054688 C 4.300781 -14.503906 3.613281 -13.726562 2.972656 -12.949219 C 1.875 -11.484375 1.328125 -9.839844 0.550781 -8.375 C -0.914062 -5.582031 0.6875 -1.921875 3.386719 -0.59375 C 4.253906 -0.183594 5.261719 0 6.175781 -0.0898438 C 7.136719 -0.230469 8.054688 -0.730469 8.785156 -1.28125 C 9.472656 -1.785156 10.980469 -2.699219 11.257812 -3.476562 C 11.257812 -3.523438 11.164062 -3.476562 11.027344 -3.339844 L 12.355469 -4.894531 C 12.402344 -4.851562 12.035156 -4.394531 12.035156 -4.394531 C 12.355469 -4.253906 14.003906 -6.679688 14.183594 -6.863281 C 14.503906 -7.414062 14.824219 -8.007812 15.191406 -8.558594 C 15.511719 -8.96875 15.421875 -8.921875 15.878906 -9.105469 C 15.832031 -9.058594 16.425781 -9.242188 16.519531 -9.242188 C 17.023438 -9.335938 22.375 -9.699219 21.050781 -11.394531 Z M 5.214844 -2.152344 L 5.171875 -2.152344 C 1.371094 -1.601562 5.765625 -9.65625 5.855469 -10.113281 L 5.582031 -9.699219 C 6.269531 -11.074219 6.910156 -12.171875 7.230469 -12.539062 C 7.734375 -10.25 10.203125 -9.378906 12.21875 -9.105469 C 10.890625 -6.453125 8.417969 -2.746094 5.214844 -2.152344 Z M 14.230469 -14.824219 C 13.910156 -13.542969 13.636719 -11.851562 12.949219 -10.707031 C 12.722656 -10.25 12.859375 -10.386719 12.402344 -10.296875 C 12.125 -10.203125 11.53125 -10.296875 11.257812 -10.339844 C 10.753906 -10.386719 10.160156 -10.480469 9.792969 -10.800781 C 9.152344 -11.347656 9.242188 -12.21875 9.335938 -12.996094 C 9.425781 -13.773438 9.65625 -14.503906 9.929688 -15.238281 C 10.066406 -15.511719 10.9375 -16.976562 10.800781 -17.25 C 10.753906 -17.386719 10.25 -16.566406 10.203125 -16.519531 C 10.480469 -17.023438 10.753906 -17.296875 10.980469 -17.617188 C 10.9375 -17.617188 10.980469 -17.664062 11.027344 -17.753906 L 11.027344 -17.707031 L 11.074219 -17.800781 C 11.074219 -17.800781 11.074219 -17.847656 11.121094 -17.847656 C 11.804688 -18.761719 13.5 -20.820312 14.414062 -19.402344 C 15.101562 -18.210938 14.460938 -15.96875 14.230469 -14.824219 Z M 11.074219 -17.800781 L 11.121094 -17.847656 C 11.121094 -17.800781 11.074219 -17.800781 11.074219 -17.800781 Z M 11.074219 -17.800781 "/></g></g><g transform="translate(210.678568, 208.335834)"><g><path d="M 18.304688 -11.667969 C 17.664062 -10.980469 17.25 -9.839844 16.746094 -9.015625 C 15.96875 -7.6875 15.191406 -6.40625 14.367188 -5.125 C 12.8125 -2.652344 11.257812 -0.136719 9.378906 2.105469 C 8.601562 3.066406 6.957031 5.398438 5.398438 5.214844 C 4.253906 5.035156 4.253906 3.066406 4.253906 2.195312 C 4.253906 1.464844 4.300781 0.730469 4.394531 0.046875 C 4.4375 -0.367188 4.804688 -1.738281 4.574219 -2.105469 L 4.210938 -0.730469 C 4.253906 -1.28125 4.347656 -1.875 4.484375 -2.425781 C 4.4375 -2.515625 4.851562 -3.796875 4.941406 -4.210938 C 5.171875 -5.125 5.398438 -6.039062 5.675781 -6.957031 C 5.902344 -7.871094 6.132812 -8.738281 6.40625 -9.609375 C 6.636719 -10.433594 6.957031 -10.84375 7.457031 -11.484375 C 9.519531 -14.046875 11.394531 -16.839844 13.132812 -19.628906 C 13.773438 -20.683594 14.183594 -21.597656 14.964844 -22.46875 C 16.105469 -23.65625 16.886719 -25.441406 17.617188 -26.90625 C 18.851562 -29.285156 20.5 -32.582031 20.226562 -35.371094 L 20.226562 -35.601562 L 20.179688 -35.644531 C 19.90625 -37.429688 18.257812 -39.535156 16.246094 -38.894531 C 15.191406 -38.574219 14.414062 -37.476562 13.773438 -36.699219 L 12.722656 -35.28125 C 12.492188 -35.003906 12.171875 -34.320312 11.941406 -33.953125 L 11.988281 -34 L 10.523438 -31.480469 L 10.890625 -32.261719 C 10.660156 -32.304688 9.65625 -30.339844 9.519531 -30.109375 C 9.015625 -29.238281 8.558594 -28.371094 8.144531 -27.5 C 7.230469 -25.671875 6.316406 -23.792969 5.71875 -21.828125 C 5.078125 -19.859375 4.347656 -17.9375 3.660156 -15.96875 C 3.292969 -14.917969 2.929688 -13.820312 2.609375 -12.765625 C 2.332031 -11.898438 1.691406 -10.480469 1.832031 -9.5625 L 1.96875 -9.5625 C 1.832031 -9.242188 1.738281 -8.921875 1.648438 -8.601562 C 1.691406 -8.878906 1.691406 -9.199219 1.738281 -9.289062 C 1.511719 -8.96875 1.554688 -7.871094 1.511719 -7.777344 C 0.914062 -5.308594 0.230469 -2.835938 0.046875 -0.273438 C -0.0898438 2.152344 -0.0898438 5.355469 1.832031 7.136719 C 3.980469 9.105469 6.453125 7.777344 8.238281 6.085938 C 10.339844 4.027344 12.125 1.601562 13.773438 -0.777344 C 15.285156 -2.972656 16.472656 -5.308594 17.847656 -7.503906 C 18.394531 -8.417969 18.988281 -9.335938 19.265625 -10.339844 C 19.449219 -11.074219 19.355469 -12.765625 18.304688 -11.667969 Z M 12.582031 -28.050781 C 13.5 -30.246094 14.414062 -32.488281 15.695312 -34.546875 C 16.015625 -35.050781 18.074219 -37.796875 17.984375 -35.371094 L 17.984375 -35.324219 C 17.890625 -32.761719 16.246094 -30.0625 15.144531 -27.867188 L 13.222656 -24.296875 C 12.582031 -23.199219 11.484375 -21.828125 11.121094 -20.636719 C 11.394531 -21.371094 12.21875 -22.421875 12.628906 -23.109375 C 13.316406 -24.253906 13.910156 -25.394531 14.550781 -26.539062 C 15.605469 -28.554688 16.746094 -30.660156 17.527344 -32.855469 C 15.464844 -26.722656 11.621094 -21.003906 8.238281 -15.558594 C 9.5625 -19.585938 10.890625 -23.976562 12.582031 -28.050781 Z M 11.121094 -31.253906 C 11.578125 -32.121094 12.402344 -32.855469 12.859375 -33.679688 C 11.898438 -31.757812 10.707031 -30.019531 9.699219 -28.1875 C 9.699219 -28.234375 9.699219 -28.324219 9.746094 -28.371094 C 10.160156 -29.378906 10.617188 -30.292969 11.121094 -31.253906 Z M 2.472656 -7.597656 C 2.425781 -7.503906 2.425781 -7.457031 2.425781 -7.457031 C 1.875 -6.175781 1.832031 -4.4375 1.554688 -3.066406 C 1.511719 -2.746094 1.417969 -2.472656 1.417969 -2.152344 L 1.417969 -2.289062 L 1.28125 -0.824219 C 1.371094 -2.472656 1.554688 -4.164062 1.875 -5.765625 L 1.875 -5.71875 C 2.011719 -6.773438 2.242188 -7.734375 2.425781 -7.734375 C 2.515625 -7.777344 2.515625 -7.640625 2.472656 -7.597656 Z M 2.472656 -7.597656 "/></g></g><g transform="translate(226.877102, 208.335834)"><g><path d="M 23.292969 -11.027344 C 23.246094 -12.035156 22.421875 -11.164062 22.148438 -10.800781 C 21.550781 -9.929688 21.003906 -9.015625 20.453125 -8.144531 C 19.21875 -6.269531 17.984375 -4.394531 16.566406 -2.609375 C 11.851562 3.203125 15.144531 -7.136719 14.78125 -7.046875 C 14.597656 -7 14.460938 -6.316406 14.414062 -6.175781 C 14.78125 -7.824219 15.464844 -9.792969 16.335938 -11.394531 C 16.839844 -12.402344 17.433594 -13.222656 16.519531 -14.324219 C 14.824219 -16.382812 12.859375 -14.503906 11.761719 -13.085938 C 11.300781 -14.824219 10.386719 -17.386719 8.144531 -17.386719 C 7.136719 -17.386719 6.542969 -16.886719 5.855469 -16.289062 C 5.445312 -16.015625 5.125 -15.96875 4.757812 -15.648438 C 4.164062 -15.238281 3.753906 -14.597656 3.339844 -14.046875 C 1.785156 -11.761719 0.6875 -8.878906 0.183594 -6.222656 C -0.046875 -4.941406 -0.136719 -3.523438 0.230469 -2.242188 C 0.457031 -1.511719 1.28125 0.136719 2.332031 0 C 2.378906 0 2.289062 -0.046875 2.152344 -0.136719 C 2.792969 0.046875 3.523438 -0.046875 4.074219 -0.410156 C 4.117188 -0.320312 3.570312 -0.0898438 3.570312 -0.0898438 C 4.074219 0.6875 7.824219 -3.84375 8.097656 -4.253906 C 8.695312 -5.078125 9.105469 -5.949219 9.65625 -6.816406 C 10.066406 -7.457031 10.707031 -8.28125 11.164062 -8.96875 C 11.121094 -8.648438 11.121094 -8.238281 11.121094 -8.238281 C 10.296875 -5.628906 9.519531 -2.792969 10.617188 -0.0898438 C 11.121094 1.28125 12.355469 2.5625 13.910156 2.289062 C 15.285156 2.058594 16.425781 0.730469 17.25 -0.320312 C 18.257812 -1.511719 19.128906 -2.835938 19.996094 -4.210938 C 20.730469 -5.445312 21.414062 -6.679688 22.011719 -8.054688 C 22.375 -8.921875 23.382812 -9.976562 23.292969 -11.027344 Z M 10.160156 -10.707031 C 9.929688 -10.386719 9.699219 -10.066406 9.519531 -9.746094 L 8.328125 -8.054688 C 7.550781 -6.910156 6.726562 -5.8125 5.855469 -4.757812 C 5.628906 -4.4375 4.53125 -3.019531 4.074219 -3.15625 C 3.386719 -3.386719 4.117188 -5.765625 4.210938 -6.132812 C 4.347656 -6.773438 6.773438 -13.820312 7.414062 -13.957031 C 6.589844 -14.003906 3.933594 -5.71875 3.796875 -5.035156 C 4.164062 -7.277344 4.988281 -9.472656 5.902344 -11.53125 C 6.40625 -12.582031 7.550781 -15.375 9.058594 -15.375 C 9.882812 -15.375 10.066406 -13.683594 10.203125 -13.132812 C 10.160156 -13.222656 9.746094 -14.550781 9.699219 -14.503906 C 9.472656 -14.324219 10.386719 -11.804688 10.386719 -11.441406 C 10.386719 -11.074219 10.386719 -11.074219 10.160156 -10.707031 Z M 11.210938 -8.464844 C 11.210938 -8.464844 11.347656 -9.105469 11.394531 -9.242188 L 11.621094 -9.5625 Z M 10.523438 -11.300781 L 10.523438 -11.761719 C 10.660156 -11.578125 10.660156 -11.441406 10.523438 -11.300781 Z M 10.523438 -11.300781 "/></g></g></g><g fill="#000000" fill-opacity="1"><g transform="translate(246.827838, 208.335834)"><g><path d="M 18.761719 -11.121094 C 18.488281 -12.308594 17.386719 -10.707031 17.160156 -10.433594 L 14.644531 -7.046875 L 12.171875 -3.796875 L 10.84375 -2.105469 C 10.707031 -1.921875 9.699219 -0.640625 9.792969 -0.640625 C 9.882812 -0.730469 10.019531 -0.730469 10.160156 -0.871094 C 9.472656 -0.136719 6.957031 2.152344 6.496094 1.601562 C 6.132812 1.144531 7.136719 -0.777344 7.277344 -1.234375 C 7.777344 -2.5625 8.238281 -3.933594 8.785156 -5.214844 C 9.378906 -6.542969 10.066406 -7.871094 10.617188 -9.199219 C 11.164062 -10.617188 10.339844 -11.121094 9.015625 -11.441406 C 8.417969 -11.578125 7.6875 -11.578125 7 -11.667969 C 7 -11.621094 7.046875 -11.621094 7.046875 -11.621094 C 7.640625 -11.53125 8.511719 -11.484375 9.242188 -11.257812 C 8.144531 -11.578125 6.773438 -11.441406 5.902344 -11.667969 C 5.308594 -11.804688 4.941406 -11.804688 5.035156 -12.492188 C 5.125 -13.40625 6.085938 -14.367188 6.40625 -15.238281 C 6.40625 -15.191406 6.085938 -14.367188 6.132812 -14.367188 C 6.359375 -14.277344 6.726562 -15.558594 6.726562 -15.742188 C 6.679688 -15.96875 6.132812 -16.65625 6.085938 -16.382812 L 6.175781 -16.246094 C 3.980469 -17.753906 1.371094 -14.644531 1.832031 -12.402344 C 1.921875 -12.082031 2.105469 -11.898438 2.242188 -11.53125 C 2.332031 -11.257812 2.242188 -10.9375 2.515625 -10.570312 C 3.476562 -9.378906 5.214844 -9.335938 6.589844 -9.609375 C 6.359375 -9.289062 3.933594 -4.164062 4.074219 -4.117188 L 3.753906 -2.972656 C 3.707031 -3.019531 3.890625 -3.386719 3.796875 -3.386719 C 3.476562 -3.433594 2.835938 -0.777344 2.792969 -0.550781 C 2.609375 0.550781 2.652344 1.511719 3.113281 2.515625 C 3.386719 3.15625 3.707031 3.707031 4.300781 4.074219 C 4.851562 4.4375 5.535156 4.621094 6.175781 4.484375 C 6.40625 4.394531 7.277344 3.796875 7.046875 3.84375 L 7.367188 3.707031 C 7.320312 3.753906 7.277344 3.796875 7.277344 3.84375 C 7.414062 3.890625 9.519531 2.195312 9.792969 2.011719 C 11.257812 0.777344 12.445312 -0.730469 13.542969 -2.242188 C 14.644531 -3.796875 15.785156 -5.355469 16.839844 -6.910156 C 17.34375 -7.640625 17.800781 -8.375 18.167969 -9.152344 C 18.441406 -9.699219 18.898438 -10.480469 18.761719 -11.121094 Z M 5.078125 -5.628906 C 5.398438 -6.453125 5.765625 -7.230469 6.175781 -8.007812 C 6.269531 -8.144531 6.910156 -9.792969 7.230469 -9.882812 C 7 -9.746094 6.039062 -7.503906 5.8125 -7.09375 L 4.941406 -5.078125 C 4.484375 -3.980469 3.980469 -2.835938 3.660156 -1.648438 C 3.980469 -3.019531 4.53125 -4.347656 5.078125 -5.628906 Z M 3.980469 3.15625 C 4.253906 3.523438 4.621094 3.890625 5.125 4.074219 C 4.714844 3.933594 4.347656 3.707031 4.074219 3.433594 C 4.117188 3.433594 4.117188 3.476562 4.117188 3.523438 C 3.84375 3.15625 3.476562 2.378906 3.433594 2.242188 C 3.292969 1.691406 3.25 1.050781 3.292969 0.503906 C 3.292969 0.046875 3.339844 -0.320312 3.433594 -0.730469 L 3.433594 -0.6875 C 3.339844 -0.0898438 3.292969 0.503906 3.339844 1.144531 L 3.339844 1.371094 C 3.292969 1.328125 3.292969 1.28125 3.292969 1.28125 C 3.292969 1.28125 3.292969 1.328125 3.339844 1.417969 L 3.339844 1.464844 L 3.523438 2.425781 L 3.386719 1.832031 C 3.476562 2.105469 3.707031 2.609375 3.933594 3.113281 L 3.890625 3.066406 C 3.890625 3.113281 3.933594 3.15625 3.980469 3.203125 Z M 5.261719 -11.941406 C 5.492188 -11.761719 5.902344 -11.714844 6.316406 -11.667969 C 5.949219 -11.714844 5.628906 -11.804688 5.398438 -11.988281 C 5.398438 -11.988281 5.125 -12.21875 5.078125 -12.308594 C 5.078125 -12.21875 5.171875 -11.988281 5.261719 -11.941406 Z M 10.066406 -8.375 L 9.105469 -6.359375 L 10.066406 -8.417969 Z M 3.476562 -0.871094 C 3.476562 -0.824219 3.433594 -0.777344 3.433594 -0.730469 L 3.433594 -0.777344 C 3.433594 -0.824219 3.476562 -0.824219 3.476562 -0.871094 Z M 10.113281 -8.511719 L 10.113281 -8.464844 L 10.066406 -8.464844 Z M 10.113281 -8.511719 L 10.113281 -8.464844 L 10.066406 -8.464844 Z M 3.523438 -1.464844 C 3.523438 -1.511719 3.570312 -1.554688 3.570312 -1.648438 C 3.570312 -1.554688 3.523438 -1.511719 3.523438 -1.464844 Z M 3.707031 2.746094 C 3.707031 2.746094 3.753906 2.792969 3.753906 2.835938 C 3.753906 2.792969 3.707031 2.792969 3.707031 2.746094 Z M 5.125 -12.402344 C 5.078125 -12.402344 5.078125 -12.355469 5.078125 -12.355469 Z M 5.125 -12.402344 "/></g></g></g><g fill="#000000" fill-opacity="1"><g transform="translate(262.248472, 208.335834)"><g><path d="M 18.167969 -10.753906 C 18.027344 -11.394531 17.664062 -11.484375 17.207031 -11.300781 C 16.335938 -10.890625 15.464844 -9.976562 14.644531 -9.425781 C 12.765625 -8.238281 10.890625 -7.277344 8.878906 -6.269531 C 8.878906 -6.316406 8.832031 -6.40625 8.785156 -6.542969 C 8.832031 -6.316406 8.785156 -6.222656 8.738281 -6.175781 C 8.28125 -8.144531 7.824219 -10.113281 7.457031 -12.125 C 7.640625 -11.257812 8.054688 -9.792969 8.375 -8.558594 C 7.960938 -10.480469 7.457031 -12.859375 7.503906 -12.859375 C 7.414062 -12.8125 7.414062 -12.722656 7.414062 -12.628906 C 7.320312 -13.179688 7.183594 -13.863281 7.277344 -14.460938 C 7.320312 -15.144531 7.6875 -15.742188 7.917969 -16.382812 C 7.871094 -16.0625 7.777344 -15.648438 7.777344 -15.648438 C 8.054688 -15.605469 8.238281 -17.296875 8.238281 -17.480469 C 8.191406 -17.753906 7.597656 -18.625 7.597656 -18.394531 C 6.359375 -19.539062 3.933594 -17.023438 3.570312 -15.925781 C 3.292969 -15.191406 3.292969 -14.414062 3.339844 -13.636719 C 3.386719 -12.859375 3.613281 -12.171875 3.84375 -11.441406 C 3.980469 -10.890625 3.796875 -10.523438 3.84375 -9.929688 C 3.933594 -9.015625 4.253906 -8.097656 4.4375 -7.230469 C 4.621094 -6.542969 5.214844 -5.171875 5.078125 -4.53125 C 4.988281 -3.890625 3.613281 -3.339844 3.019531 -2.972656 C 2.242188 -2.472656 1.464844 -1.875 0.6875 -1.28125 C -0.6875 -0.230469 -2.152344 1.097656 -2.699219 2.792969 C -2.792969 3.019531 -3.113281 4.027344 -2.792969 4.210938 C -2.746094 4.253906 -2.609375 3.476562 -2.5625 3.386719 C -3.15625 6.40625 -0.183594 7.871094 2.609375 7.917969 C 5.765625 8.007812 7.960938 6.175781 9.058594 3.339844 C 9.519531 2.105469 9.65625 0.824219 9.609375 -0.457031 C 9.609375 -1.328125 9.519531 -2.152344 9.378906 -2.972656 C 9.289062 -3.707031 9.199219 -3.660156 9.699219 -4.074219 C 10.066406 -4.347656 10.617188 -4.53125 10.980469 -4.714844 C 12.445312 -5.492188 13.773438 -6.40625 15.101562 -7.367188 C 16.0625 -8.054688 18.347656 -9.242188 18.167969 -10.707031 Z M -0.320312 4.988281 C -1.511719 4.621094 -0.320312 2.746094 0.0898438 2.152344 C 0.777344 1.234375 1.785156 0.550781 2.699219 -0.0898438 L 4.074219 -1.007812 C 4.210938 -1.097656 5.078125 -1.785156 4.804688 -1.691406 L 5.355469 -2.011719 L 5.035156 -1.738281 C 5.125 -1.785156 5.261719 -1.832031 5.355469 -1.921875 C 5.398438 -0.824219 5.398438 0.273438 5.078125 1.371094 C 5.035156 1.554688 4.164062 3.386719 3.796875 3.753906 L 4.027344 3.570312 C 3.613281 4.074219 3.15625 4.484375 2.609375 4.804688 C 2.609375 4.757812 3.019531 4.484375 2.972656 4.4375 L 1.691406 4.941406 C 1.050781 5.078125 0.320312 5.214844 -0.320312 4.988281 Z M 5.445312 6.316406 C 4.253906 6.816406 3.113281 7.046875 1.875 7.09375 C 4.117188 6.957031 6.453125 5.855469 7.777344 3.980469 C 7.277344 4.988281 6.636719 5.765625 5.445312 6.316406 Z M 8.785156 -6.679688 C 8.738281 -7 8.648438 -7.457031 8.511719 -7.960938 C 8.601562 -7.457031 8.695312 -6.957031 8.785156 -6.679688 Z M 9.378906 -1.921875 C 9.335938 -1.96875 9.335938 -2.058594 9.335938 -2.152344 C 9.335938 -2.058594 9.378906 -1.96875 9.378906 -1.921875 Z M 9.378906 -1.921875 "/></g></g></g><g fill="#000000" fill-opacity="1"><g transform="translate(277.074256, 208.335834)"><g><path d="M 24.207031 -11.074219 C 24.160156 -11.898438 23.566406 -11.667969 23.152344 -11.300781 C 22.925781 -11.074219 19.949219 -7.777344 20.089844 -7.550781 C 20.179688 -7.550781 20.316406 -7.550781 20.410156 -7.640625 C 19.539062 -6.773438 18.167969 -5.949219 17.113281 -5.171875 C 16.0625 -4.347656 14.871094 -2.835938 13.40625 -2.746094 C 13.269531 -2.746094 13.132812 -2.699219 12.949219 -2.746094 C 12.308594 -2.835938 10.753906 -5.628906 10.617188 -6.222656 C 10.660156 -5.765625 11.714844 -3.707031 11.988281 -3.25 C 10.9375 -4.4375 10.386719 -6.222656 10.113281 -7.824219 C 10.160156 -7.6875 10.25 -7.550781 10.296875 -7.550781 C 10.433594 -7.597656 10.25 -8.511719 10.25 -8.558594 C 10.339844 -8.648438 11.027344 -8.832031 11.210938 -8.921875 C 12.21875 -9.335938 13.179688 -9.839844 14.140625 -10.386719 C 15.925781 -11.347656 17.707031 -12.492188 19.171875 -13.910156 C 20.773438 -15.511719 22.148438 -17.753906 20.042969 -19.585938 C 17.9375 -21.371094 14.964844 -18.988281 13.363281 -17.570312 C 11.804688 -16.199219 10.480469 -14.597656 9.242188 -12.949219 C 8.695312 -12.125 8.097656 -11.347656 7.597656 -10.523438 C 7.277344 -10.066406 6.269531 -8.921875 6.359375 -8.375 C 6.359375 -8.375 7.230469 -9.425781 7.277344 -9.472656 C 6.957031 -9.015625 6.636719 -8.511719 6.359375 -8.007812 C 6.359375 -8.054688 5.628906 -7.046875 5.535156 -6.863281 L 4.300781 -4.714844 C 4.804688 -6.863281 5.398438 -9.015625 6.039062 -11.164062 C 6.359375 -12.261719 6.636719 -12.902344 7.367188 -13.773438 C 8.007812 -14.550781 8.648438 -15.328125 9.242188 -16.105469 C 10.617188 -17.847656 11.851562 -19.722656 13.085938 -21.597656 C 14.003906 -22.972656 14.6875 -24.753906 15.742188 -25.898438 C 17.023438 -27.410156 18.121094 -29.421875 18.761719 -31.34375 C 19.128906 -32.398438 18.988281 -33.265625 18.488281 -34.320312 C 17.527344 -36.195312 15.605469 -37.886719 13.5 -36.925781 C 11.761719 -36.148438 10.523438 -34.363281 9.609375 -32.761719 C 9.015625 -31.757812 8.464844 -30.703125 8.007812 -29.605469 L 7.09375 -27.683594 C 6.957031 -27.316406 6.816406 -26.722656 6.679688 -26.402344 C 6.679688 -26.355469 6.636719 -26.3125 6.636719 -26.3125 C 6.269531 -25.394531 5.996094 -24.527344 5.675781 -23.613281 C 5.628906 -23.65625 5.902344 -24.527344 5.902344 -24.527344 C 5.675781 -24.527344 4.941406 -22.332031 4.851562 -22.054688 C 4.4375 -20.957031 4.074219 -19.859375 3.707031 -18.714844 C 3.019531 -16.65625 2.472656 -14.550781 2.058594 -12.402344 C 1.691406 -10.066406 1.007812 -7.777344 0.503906 -5.492188 C 0.320312 -4.484375 0 -3.476562 0 -2.472656 C 0 -1.921875 0.0898438 -1.328125 0.410156 -0.871094 C 0.503906 -0.777344 1.28125 -0.136719 1.28125 -0.183594 C 1.28125 -0.183594 1.234375 -0.230469 1.234375 -0.273438 C 1.464844 -0.0898438 1.921875 0.046875 2.289062 0.0898438 C 1.96875 0.0898438 1.554688 0.046875 1.464844 -0.0898438 C 1.785156 0.367188 3.019531 0.046875 3.113281 0.046875 C 4.164062 -0.183594 4.394531 -1.648438 4.941406 -2.472656 L 7.136719 -6.132812 C 7.320312 -5.171875 7.6875 -4.074219 8.144531 -3.25 C 8.238281 -3.019531 9.5625 -1.191406 9.65625 -1.28125 C 9.65625 -1.328125 9.609375 -1.417969 9.609375 -1.464844 C 9.792969 -1.234375 9.976562 -1.050781 10.203125 -0.914062 C 10.160156 -0.871094 10.019531 -1.050781 9.976562 -0.960938 C 9.699219 -0.550781 11.667969 0.136719 11.988281 0.136719 C 12.628906 0.0898438 13.179688 -0.367188 13.773438 -0.59375 C 14.277344 -0.824219 14.78125 -1.007812 15.238281 -1.371094 C 15.785156 -1.832031 15.191406 -1.554688 15.558594 -1.832031 L 15.558594 -1.738281 C 15.695312 -1.921875 17.753906 -3.066406 17.847656 -3.15625 C 18.898438 -3.933594 19.722656 -4.988281 20.636719 -5.949219 C 21.414062 -6.726562 22.054688 -7.597656 22.695312 -8.417969 C 23.382812 -9.199219 24.296875 -9.839844 24.207031 -11.027344 Z M 14.277344 -33.402344 C 14.734375 -34.042969 16.0625 -35.644531 16.886719 -34.546875 C 17.707031 -33.449219 16.289062 -30.839844 15.785156 -29.789062 C 15.101562 -28.234375 14.230469 -26.722656 13.363281 -25.257812 L 12.125 -23.246094 C 11.667969 -22.558594 11.074219 -21.917969 10.800781 -21.230469 C 10.980469 -21.550781 11.347656 -21.964844 11.578125 -22.238281 L 12.582031 -23.839844 C 13.363281 -25.074219 14.09375 -26.3125 14.78125 -27.59375 C 15.144531 -28.1875 15.511719 -28.875 15.925781 -29.605469 C 15.464844 -28.644531 14.964844 -27.730469 14.460938 -26.816406 C 12.445312 -23.152344 10.113281 -19.722656 7.597656 -16.425781 C 8.417969 -19.402344 9.289062 -22.375 10.386719 -25.304688 C 11.441406 -28.050781 12.492188 -31.023438 14.277344 -33.402344 Z M 9.699219 -9.839844 C 11.210938 -11.941406 12.765625 -14.003906 14.550781 -15.878906 C 14.964844 -16.335938 17.25 -18.945312 18.027344 -18.394531 C 18.761719 -17.847656 16.152344 -14.871094 15.785156 -14.460938 C 14.09375 -12.628906 12.035156 -10.753906 9.699219 -9.839844 Z M 9.976562 -26.265625 C 10.523438 -27.59375 11.027344 -28.964844 11.667969 -30.339844 C 11.714844 -30.519531 12.171875 -31.117188 12.402344 -31.527344 C 12.171875 -30.933594 11.484375 -29.925781 11.394531 -29.652344 C 10.660156 -27.777344 10.113281 -25.855469 9.472656 -23.933594 C 8.738281 -21.644531 8.007812 -19.449219 7.414062 -17.160156 L 7.503906 -17.527344 L 7.457031 -17.480469 C 7.457031 -17.527344 7.503906 -17.527344 7.503906 -17.570312 C 8.097656 -20.453125 8.832031 -23.519531 9.976562 -26.265625 Z M 6.679688 -26.402344 L 6.636719 -26.355469 C 6.679688 -26.355469 6.679688 -26.402344 6.679688 -26.402344 Z M 6.636719 -26.3125 L 6.636719 -26.355469 Z M 6.636719 -26.3125 "/></g></g></g><g fill="#000000" fill-opacity="1"><g transform="translate(297.940158, 208.335834)"><g><path d="M 11.988281 -11.257812 C 11.898438 -11.851562 11.257812 -11.667969 10.9375 -11.441406 C 10.523438 -11.164062 8.238281 -8.144531 8.417969 -7.917969 C 8.558594 -7.917969 8.648438 -7.917969 8.738281 -8.007812 C 8.097656 -7.230469 6.910156 -6.359375 6.039062 -5.675781 C 5.535156 -5.261719 4.300781 -4.117188 3.570312 -4.484375 C 2.011719 -5.261719 5.171875 -10.753906 5.035156 -10.800781 C 4.894531 -10.84375 3.753906 -8.28125 3.523438 -7.6875 C 4.074219 -9.289062 4.804688 -10.890625 5.675781 -12.308594 C 5.628906 -12.171875 5.492188 -11.941406 5.582031 -11.941406 C 5.675781 -11.898438 6.359375 -12.859375 6.222656 -12.949219 C 6.175781 -12.949219 6.085938 -12.949219 6.039062 -12.902344 C 6.175781 -13.042969 6.40625 -13.085938 6.40625 -13.363281 C 6.40625 -13.820312 5.355469 -14.277344 4.988281 -14.414062 C 4.117188 -14.78125 3.25 -14.871094 2.5625 -14.414062 C 1.648438 -13.863281 1.464844 -12.765625 1.097656 -11.804688 C 1.007812 -11.53125 0.136719 -8.28125 0.320312 -8.238281 C 0.410156 -8.28125 0.410156 -8.328125 0.457031 -8.417969 L 0.320312 -7.597656 C 0.273438 -7.597656 0.367188 -7.824219 0.273438 -7.824219 C -0.0898438 -7.824219 0 -6.175781 0.046875 -5.949219 C 0.230469 -5.125 0.871094 -4.53125 1.371094 -3.84375 C 1.648438 -3.433594 1.921875 -3.019531 2.332031 -2.746094 C 2.882812 -2.332031 2.515625 -2.746094 2.882812 -2.5625 L 2.792969 -2.5625 C 2.746094 -2.289062 4.484375 -1.832031 4.851562 -1.875 C 6.453125 -2.242188 7.597656 -4.210938 8.511719 -5.445312 C 9.378906 -6.542969 10.113281 -7.640625 10.890625 -8.785156 C 11.347656 -9.378906 12.171875 -10.386719 11.988281 -11.257812 Z M 3.980469 -17.023438 C 4.074219 -16.886719 3.933594 -16.703125 4.253906 -16.519531 C 4.574219 -16.382812 4.757812 -16.566406 5.035156 -16.65625 C 5.582031 -16.886719 5.996094 -17.480469 6.40625 -17.847656 C 6.542969 -17.9375 6.269531 -17.890625 6.269531 -17.890625 C 6.863281 -18.441406 6.359375 -17.800781 6.910156 -18.121094 C 7.457031 -18.488281 7.550781 -19.082031 8.007812 -19.585938 C 7.457031 -19.355469 7.046875 -19.035156 6.679688 -18.578125 C 6.222656 -17.984375 5.902344 -17.707031 5.398438 -17.386719 C 5.949219 -17.800781 6.222656 -18.210938 6.679688 -18.945312 C 6.816406 -19.082031 6.957031 -19.171875 7.136719 -19.265625 C 7 -19.402344 7 -19.539062 7.183594 -19.675781 C 7.320312 -19.90625 7.597656 -19.996094 7.734375 -20.226562 C 7.960938 -20.546875 7.917969 -20.957031 8.191406 -21.277344 C 8.417969 -21.460938 8.738281 -21.597656 8.921875 -21.78125 C 9.335938 -22.148438 9.792969 -22.832031 9.609375 -23.429688 C 9.425781 -23.976562 8.96875 -24.664062 8.464844 -24.984375 C 7.871094 -25.304688 7.046875 -25.441406 6.40625 -25.167969 C 6.269531 -25.121094 5.71875 -24.984375 5.902344 -24.800781 C 5.949219 -24.710938 5.996094 -24.710938 6.085938 -24.710938 C 5.675781 -24.390625 4.988281 -23.839844 5.949219 -23.472656 C 5.855469 -23.382812 5.949219 -22.972656 5.949219 -22.925781 C 5.902344 -22.605469 5.261719 -20.910156 4.851562 -20.089844 L 5.398438 -20.910156 C 5.078125 -20.226562 4.714844 -19.585938 4.300781 -19.035156 C 4.574219 -19.628906 4.027344 -18.945312 4.027344 -18.808594 C 3.523438 -19.035156 3.660156 -17.617188 3.707031 -17.480469 C 3.707031 -17.433594 3.980469 -17.023438 3.980469 -17.023438 Z M 3.113281 -6.132812 L 3.113281 -6.085938 L 3.019531 -5.8125 L 3.113281 -6.175781 C 3.15625 -6.222656 3.15625 -6.222656 3.113281 -6.132812 Z M 4.621094 -19.722656 C 4.621094 -19.722656 4.714844 -19.8125 4.804688 -19.996094 Z M 4.164062 -18.851562 C 4.164062 -18.808594 4.164062 -18.808594 4.117188 -18.761719 C 4.117188 -18.761719 4.117188 -18.808594 4.074219 -18.808594 C 4.117188 -18.808594 4.117188 -18.808594 4.164062 -18.851562 Z M 4.164062 -18.851562 "/></g></g></g><g fill="#000000" fill-opacity="1"><g transform="translate(306.588535, 208.335834)"><g/></g></g><g fill="#000000" fill-opacity="1"><g transform="translate(319.400937, 208.335834)"><g><path d="M 26.355469 -26.769531 C 25.257812 -26.632812 24.527344 -25.945312 23.75 -25.214844 C 22.421875 -23.976562 21.1875 -22.652344 19.996094 -21.324219 C 16.792969 -17.847656 13.683594 -14.277344 10.800781 -10.570312 C 8.558594 -7.777344 6.316406 -4.941406 4.210938 -2.058594 C 2.835938 -0.136719 1.417969 1.832031 0.136719 3.84375 C -0.183594 4.347656 -1.785156 6.269531 -1.511719 6.863281 L -1.691406 7.230469 C -1.691406 7.230469 -1.691406 7.320312 -1.832031 7.550781 C -1.785156 7.367188 -1.738281 7.320312 -1.738281 7.277344 L -1.738281 7.320312 L -1.738281 7.277344 C -1.738281 7.230469 -1.832031 7.457031 -1.785156 7.367188 C -1.96875 7.734375 -2.835938 9.015625 -2.058594 9.242188 C -1.464844 9.378906 -0.457031 8.007812 -0.136719 7.640625 C 0.730469 6.679688 1.554688 5.675781 2.378906 4.714844 C 4.117188 2.699219 5.855469 0.320312 7.503906 -1.601562 L 8.054688 -2.242188 C 8.054688 -2.242188 8.097656 -2.289062 8.097656 -2.332031 C 10.660156 -5.308594 12.949219 -8.464844 15.421875 -11.484375 C 17.160156 -13.589844 18.898438 -15.695312 20.589844 -17.890625 C 21.371094 -18.898438 22.011719 -20.089844 22.789062 -21.050781 C 22.789062 -21.003906 22.742188 -21.003906 22.742188 -21.003906 C 23.703125 -22.148438 24.664062 -23.292969 25.441406 -24.574219 C 25.578125 -24.753906 26.632812 -26.769531 26.355469 -26.769531 Z M -1.511719 6.863281 C -1.554688 6.636719 -1.007812 5.902344 -0.871094 5.71875 Z M 22.695312 -20.910156 C 22.695312 -20.910156 22.742188 -20.957031 22.742188 -21.003906 C 22.742188 -20.957031 22.695312 -20.910156 22.695312 -20.910156 Z M -1.691406 7.230469 C -1.691406 7.277344 -1.738281 7.277344 -1.738281 7.277344 Z M 7.550781 -1.648438 C 7.550781 -1.648438 7.550781 -1.601562 7.503906 -1.601562 Z M 7.550781 -1.648438 "/></g></g></g><g fill="#000000" fill-opacity="1"><g transform="translate(343.286912, 208.335834)"><g><path d="M 17.707031 -13.773438 C 16.703125 -14.917969 15.101562 -16.0625 13.863281 -17.023438 L 12.8125 -17.753906 C 12.582031 -17.890625 12.125 -17.984375 11.988281 -18.074219 C 11.300781 -18.441406 10.707031 -19.082031 9.976562 -19.449219 C 9.5625 -19.628906 8.558594 -20.089844 8.464844 -19.449219 C 8.328125 -18.898438 9.105469 -18.210938 9.425781 -17.890625 C 10.753906 -16.609375 12.402344 -15.605469 13.957031 -14.734375 C 12.171875 -13.820312 11.121094 -12.355469 9.519531 -11.164062 C 8.007812 -10.019531 6.589844 -8.785156 4.988281 -7.824219 C 7.824219 -9.609375 10.203125 -12.171875 12.859375 -14.183594 C 11.347656 -13.453125 9.792969 -12.765625 8.417969 -11.761719 C 7.414062 -10.980469 6.222656 -10.433594 5.261719 -9.519531 C 3.796875 -8.191406 4.4375 -5.996094 6.589844 -5.855469 C 7.6875 -5.765625 8.511719 -6.636719 9.472656 -7.230469 C 10.707031 -8.054688 12.082031 -8.785156 13.222656 -9.746094 C 14.046875 -10.480469 15.054688 -11.121094 15.925781 -11.851562 C 16.425781 -12.261719 17.800781 -13.085938 17.707031 -13.773438 Z M 17.707031 -13.773438 "/></g></g></g></svg>