<svg xmlns="http://www.w3.org/2000/svg" xmlns:xlink="http://www.w3.org/1999/xlink" width="500" zoomAndPan="magnify" viewBox="0 0 375 374.999991" height="500" preserveAspectRatio="xMidYMid meet" version="1.0"><defs><g/><clipPath id="b84436dcb7"><path d="M 10.136719 99 L 187.136719 99 L 187.136719 231 L 10.136719 231 Z M 10.136719 99 " clip-rule="nonzero"/></clipPath><clipPath id="033a55187a"><path d="M 31.839844 100.53125 L 44.945312 121.984375 L 45.140625 122.179688 C 63.101562 133.441406 80.382812 144.609375 98.105469 156.257812 L 98.636719 155.628906 L 70.480469 125.285156 L 70.433594 125.238281 L 47.371094 107.179688 L 47.277344 107.132812 L 32.421875 99.898438 Z M 17.175781 190.140625 L 23.246094 190.578125 L 16.109375 181.308594 L 15.285156 181.648438 L 16.011719 187.761719 C 16.011719 187.910156 15.964844 188.101562 15.769531 188.152344 L 10.136719 190.820312 L 10.378906 191.597656 L 16.984375 190.191406 C 17.03125 190.191406 17.078125 190.191406 17.128906 190.191406 Z M 24.992188 197.082031 L 16.59375 199.367188 L 16.253906 199.609375 L 13.246094 204.121094 L 13.777344 204.851562 L 20.1875 202.957031 L 20.429688 202.8125 L 25.476562 197.859375 L 25.042969 197.132812 Z M 38.292969 191.0625 L 26.742188 189.074219 L 26.351562 189.851562 L 31.011719 193.832031 C 31.160156 193.929688 31.207031 194.121094 31.160156 194.316406 L 28.828125 200.09375 L 29.554688 200.480469 L 33.488281 194.949219 C 33.488281 194.898438 33.535156 194.898438 33.585938 194.851562 L 38.34375 191.0625 Z M 48.925781 183.441406 L 22.761719 180.53125 L 22.566406 181.308594 L 39.652344 187.082031 L 39.992188 187.082031 L 48.976562 184.269531 L 48.878906 183.441406 Z M 52.761719 181.453125 L 60.917969 182.472656 C 63.585938 179.65625 65.578125 177.714844 68.441406 175.09375 L 68.054688 174.316406 L 59.121094 175.628906 L 58.925781 175.675781 L 54.363281 178.152344 L 54.121094 178.394531 L 52.761719 181.402344 Z M 39.75 198.296875 L 50.382812 195.140625 L 50.625 194.996094 L 58.976562 186.792969 L 58.539062 186.0625 L 44.605469 189.851562 L 44.265625 190.09375 L 39.21875 197.617188 L 39.75 198.347656 Z M 24.554688 209.609375 L 29.023438 210.191406 C 30.332031 208.78125 31.351562 207.8125 32.761719 206.5 L 32.371094 205.726562 L 28.003906 206.355469 L 27.808594 206.40625 L 25.527344 207.617188 L 25.285156 207.859375 L 24.507812 209.558594 Z M 33.632812 214.996094 L 19.894531 213.441406 L 19.703125 214.21875 L 28.683594 217.277344 L 29.023438 217.277344 L 33.683594 215.820312 L 33.585938 214.996094 Z M 34.023438 210.386719 L 43.78125 207.617188 L 44.070312 207.421875 L 47.277344 203.347656 L 46.742188 202.714844 L 33.730469 209.65625 Z M 55.089844 214.996094 L 53.828125 215.675781 C 53.78125 215.675781 53.730469 215.726562 53.683594 215.726562 L 43.199219 216.792969 L 42.859375 216.988281 L 31.011719 229.800781 L 31.5 230.53125 L 51.449219 222.910156 L 51.644531 222.8125 L 65.578125 210.53125 L 65.09375 209.851562 L 55.578125 214.800781 C 55.480469 214.851562 55.382812 214.851562 55.285156 214.851562 C 55.238281 214.949219 55.1875 215.046875 55.089844 215.09375 Z M 55.1875 214.027344 L 71.210938 203.878906 L 70.871094 203.101562 L 58.148438 206.5 L 58.054688 206.5 L 49.316406 206.988281 L 43.390625 215.046875 L 54.65625 214.269531 L 54.75 214.21875 C 54.847656 214.171875 54.945312 214.171875 55.042969 214.21875 C 55.089844 214.121094 55.140625 214.074219 55.1875 214.027344 Z M 98.976562 203.007812 L 73.441406 209.414062 L 73.539062 210.191406 L 91.550781 209.65625 L 91.890625 209.558594 L 99.316406 203.78125 L 98.929688 203.007812 Z M 97.035156 182.957031 L 83.394531 181.355469 L 83.296875 181.355469 L 74.703125 178.347656 L 53.199219 198.589844 L 53.585938 199.367188 L 73.734375 194.65625 L 73.832031 194.609375 L 97.179688 183.832031 Z M 84.898438 177.617188 L 97.519531 179.609375 L 97.8125 179.609375 L 104.851562 177.328125 L 104.804688 176.453125 L 78.683594 172.132812 L 78.34375 172.910156 L 84.703125 177.472656 L 84.949219 177.570312 Z M 102.328125 197.132812 L 102.859375 184.414062 L 78.589844 196.015625 L 78.683594 196.890625 L 90.628906 199.753906 L 90.871094 199.753906 Z M 113.734375 189.460938 L 116.890625 178.199219 L 116.164062 177.761719 L 115.386719 178.539062 C 115.335938 178.589844 115.289062 178.589844 115.289062 178.636719 C 115.289062 178.6875 115.242188 178.734375 115.191406 178.734375 L 106.015625 188.007812 L 105.871094 188.347656 L 105.238281 197.421875 L 106.066406 197.761719 L 113.6875 189.707031 L 113.832031 189.460938 Z M 131.359375 173.589844 L 122.230469 180.578125 L 122.035156 180.820312 L 116.601562 193.878906 C 116.550781 193.929688 116.550781 193.976562 116.503906 194.027344 L 99.949219 207.519531 L 100.386719 208.25 L 118.105469 200.917969 L 118.300781 200.773438 L 133.152344 184.609375 Z M 133.007812 162.132812 L 130.339844 150.820312 L 129.464844 150.773438 L 119.707031 177.328125 L 120.386719 177.859375 L 130.628906 170.675781 L 130.824219 170.382812 L 133.007812 162.375 L 133.007812 162.082031 Z M 155.195312 148.734375 L 187.285156 136.9375 L 187.089844 136.160156 L 152.667969 142.8125 Z M 158.105469 150.820312 L 141.261719 161.988281 L 140.726562 179.558594 L 141.550781 179.753906 L 147.816406 164.316406 C 147.816406 164.269531 147.863281 164.21875 147.863281 164.21875 L 158.640625 151.5 L 158.105469 150.871094 Z M 139.949219 147.8125 L 137.960938 151.0625 C 137.910156 151.160156 137.863281 151.210938 137.765625 151.210938 L 135.824219 151.9375 C 135.679688 151.984375 135.484375 151.984375 135.386719 151.839844 C 135.242188 151.695312 135.242188 151.453125 135.386719 151.257812 C 135.582031 151.0625 135.777344 150.773438 135.921875 150.480469 C 136.019531 150.191406 136.117188 149.898438 136.117188 149.558594 C 136.117188 149.21875 136.066406 148.929688 135.921875 148.636719 C 135.824219 148.34375 135.628906 148.101562 135.386719 147.859375 C 135.191406 147.664062 134.902344 147.472656 134.609375 147.324219 C 134.320312 147.230469 134.027344 147.132812 133.6875 147.132812 C 133.347656 147.132812 133.058594 147.179688 132.765625 147.324219 C 132.472656 147.421875 132.230469 147.617188 131.988281 147.859375 C 131.792969 148.054688 131.601562 148.34375 131.453125 148.636719 C 131.359375 148.929688 131.261719 149.21875 131.261719 149.558594 C 131.261719 149.898438 131.308594 150.191406 131.453125 150.480469 C 131.550781 150.773438 131.746094 151.015625 131.988281 151.257812 C 132.183594 151.453125 132.425781 151.644531 132.667969 151.742188 C 132.910156 151.839844 133.203125 151.9375 133.492188 151.9375 C 133.640625 151.9375 133.785156 152.035156 133.832031 152.179688 C 133.929688 152.375 133.785156 152.617188 133.589844 152.714844 L 133.203125 152.859375 L 135.679688 161.210938 C 139.757812 157.472656 143.589844 153.683594 147.574219 149.800781 L 149.027344 148.34375 L 148.6875 147.519531 L 139.902344 147.714844 Z M 123.929688 138.929688 L 136.699219 142.519531 L 136.941406 142.519531 L 149.515625 140.382812 L 149.5625 139.511719 L 134.078125 135.722656 L 133.832031 135.722656 L 124.027344 138.054688 L 124.027344 138.929688 Z M 110.871094 155.433594 L 129.222656 144.171875 L 120.289062 141.453125 L 113.976562 146.984375 L 113.832031 147.179688 L 110.191406 154.800781 L 110.824219 155.382812 Z M 112.472656 160.289062 C 112.328125 160.382812 112.132812 160.382812 111.988281 160.289062 L 98.25 149.851562 L 97.667969 150.433594 L 109.171875 164.269531 C 109.171875 164.316406 109.222656 164.316406 109.222656 164.363281 L 114.949219 177.570312 L 127.132812 151.160156 L 126.453125 150.578125 L 112.425781 160.238281 Z M 67.859375 118.152344 C 80.773438 129.605469 93.199219 140.578125 107.375 151.015625 L 108.007812 150.433594 L 102.667969 142.421875 L 102.519531 142.277344 L 58.394531 108.78125 L 57.90625 109.363281 C 61.207031 112.277344 64.558594 115.238281 67.859375 118.152344 Z M 107.035156 172.957031 L 66.839844 154.21875 L 66.257812 154.851562 L 74.511719 168.007812 L 106.792969 173.683594 L 107.035156 172.910156 Z M 67.375 139.171875 L 50.867188 131.550781 L 50.335938 132.230469 L 62.664062 148.929688 L 62.90625 149.121094 L 106.453125 168.683594 L 106.84375 168.003906 L 67.472656 139.269531 L 67.375 139.21875 Z M 67.375 139.171875 " clip-rule="evenodd"/></clipPath></defs><rect x="-37.5" width="450" fill="#ffffff" y="-37.499999" height="449.999989" fill-opacity="1"/><rect x="-37.5" width="450" fill="#ffffff" y="-37.499999" height="449.999989" fill-opacity="1"/><rect x="-37.5" width="450" fill="#3e5151" y="-37.499999" height="449.999989" fill-opacity="1"/><g clip-path="url(#b84436dcb7)"><g clip-path="url(#033a55187a)"><path fill="#decba4" d="M 10.136719 99.898438 L 10.136719 230.53125 L 187.136719 230.53125 L 187.136719 99.898438 Z M 10.136719 99.898438 " fill-opacity="1" fill-rule="nonzero"/></g></g><g fill="#ffffff" fill-opacity="1"><g transform="translate(130.535929, 220.035967)"><g><path d="M 10.390625 0.34375 C 9.191406 0.34375 8.09375 0.179688 7.09375 -0.140625 C 6.101562 -0.460938 5.242188 -0.914062 4.515625 -1.5 C 3.785156 -2.09375 3.210938 -2.816406 2.796875 -3.671875 C 2.390625 -4.523438 2.171875 -5.472656 2.140625 -6.515625 L 6.0625 -6.515625 C 6.101562 -5.429688 6.535156 -4.578125 7.359375 -3.953125 C 8.179688 -3.328125 9.21875 -3.015625 10.46875 -3.015625 C 11.820312 -3.015625 12.882812 -3.316406 13.65625 -3.921875 C 14.4375 -4.535156 14.828125 -5.375 14.828125 -6.4375 C 14.828125 -7.363281 14.535156 -8.171875 13.953125 -8.859375 C 13.378906 -9.554688 12.5625 -10.078125 11.5 -10.421875 L 8.875 -11.296875 C 4.78125 -12.585938 2.734375 -14.988281 2.734375 -18.5 C 2.734375 -20.601562 3.421875 -22.257812 4.796875 -23.46875 C 6.171875 -24.675781 8.070312 -25.28125 10.5 -25.28125 C 11.625 -25.28125 12.65625 -25.125 13.59375 -24.8125 C 14.53125 -24.507812 15.335938 -24.066406 16.015625 -23.484375 C 16.703125 -22.910156 17.242188 -22.207031 17.640625 -21.375 C 18.046875 -20.539062 18.265625 -19.601562 18.296875 -18.5625 L 14.375 -18.5625 C 14.351562 -19.601562 13.96875 -20.429688 13.21875 -21.046875 C 12.46875 -21.660156 11.535156 -21.96875 10.421875 -21.96875 C 9.222656 -21.96875 8.273438 -21.675781 7.578125 -21.09375 C 6.890625 -20.519531 6.546875 -19.75 6.546875 -18.78125 C 6.546875 -17.875 6.804688 -17.113281 7.328125 -16.5 C 7.847656 -15.894531 8.671875 -15.40625 9.796875 -15.03125 L 12.578125 -14.171875 C 14.554688 -13.566406 16.0625 -12.613281 17.09375 -11.3125 C 18.125 -10.007812 18.640625 -8.441406 18.640625 -6.609375 C 18.640625 -5.546875 18.445312 -4.585938 18.0625 -3.734375 C 17.6875 -2.878906 17.140625 -2.148438 16.421875 -1.546875 C 15.703125 -0.953125 14.832031 -0.488281 13.8125 -0.15625 C 12.800781 0.175781 11.660156 0.34375 10.390625 0.34375 Z M 10.390625 0.34375 "/></g></g></g><g fill="#ffffff" fill-opacity="1"><g transform="translate(155.955055, 220.035967)"><g><path d="M 2.21875 0 L 2.21875 -24.9375 L 6.796875 -24.9375 L 9.671875 -16.796875 C 9.785156 -16.546875 9.878906 -16.257812 9.953125 -15.9375 C 10.035156 -15.613281 10.101562 -15.320312 10.15625 -15.0625 C 10.21875 -14.738281 10.285156 -14.429688 10.359375 -14.140625 L 10.59375 -14.140625 C 10.664062 -14.429688 10.738281 -14.738281 10.8125 -15.0625 C 10.875 -15.320312 10.945312 -15.613281 11.03125 -15.9375 C 11.113281 -16.257812 11.203125 -16.546875 11.296875 -16.796875 L 13.953125 -24.9375 L 18.609375 -24.9375 L 18.609375 0 L 15.171875 0 L 15.171875 -16.765625 C 15.171875 -17.222656 15.179688 -17.710938 15.203125 -18.234375 C 15.222656 -18.753906 15.257812 -19.242188 15.3125 -19.703125 C 15.351562 -20.265625 15.398438 -20.8125 15.453125 -21.34375 L 15.171875 -21.34375 C 15.035156 -20.832031 14.910156 -20.332031 14.796875 -19.84375 C 14.679688 -19.40625 14.550781 -18.941406 14.40625 -18.453125 C 14.269531 -17.972656 14.144531 -17.535156 14.03125 -17.140625 L 12.09375 -11.015625 L 8.765625 -11.015625 L 6.75 -17.140625 C 6.632812 -17.554688 6.507812 -18.003906 6.375 -18.484375 C 6.238281 -18.972656 6.113281 -19.441406 6 -19.890625 C 5.875 -20.367188 5.753906 -20.863281 5.640625 -21.375 L 5.375 -21.375 C 5.414062 -20.84375 5.460938 -20.300781 5.515625 -19.75 C 5.535156 -19.28125 5.554688 -18.78125 5.578125 -18.25 C 5.597656 -17.71875 5.609375 -17.222656 5.609375 -16.765625 L 5.609375 0 Z M 2.21875 0 "/></g></g></g><g fill="#ffffff" fill-opacity="1"><g transform="translate(181.374181, 220.035967)"><g><path d="M 6.203125 -7.203125 C 6.203125 -5.929688 6.582031 -4.914062 7.34375 -4.15625 C 8.101562 -3.394531 9.117188 -3.015625 10.390625 -3.015625 C 11.660156 -3.015625 12.675781 -3.394531 13.4375 -4.15625 C 14.195312 -4.914062 14.578125 -5.929688 14.578125 -7.203125 L 14.578125 -17.734375 C 14.578125 -19.023438 14.195312 -20.050781 13.4375 -20.8125 C 12.675781 -21.582031 11.660156 -21.96875 10.390625 -21.96875 C 9.117188 -21.96875 8.101562 -21.582031 7.34375 -20.8125 C 6.582031 -20.050781 6.203125 -19.023438 6.203125 -17.734375 Z M 2.390625 -17.734375 C 2.390625 -18.890625 2.578125 -19.925781 2.953125 -20.84375 C 3.335938 -21.769531 3.875 -22.5625 4.5625 -23.21875 C 5.257812 -23.882812 6.097656 -24.394531 7.078125 -24.75 C 8.066406 -25.101562 9.171875 -25.28125 10.390625 -25.28125 C 11.617188 -25.28125 12.722656 -25.101562 13.703125 -24.75 C 14.679688 -24.394531 15.515625 -23.882812 16.203125 -23.21875 C 16.898438 -22.5625 17.4375 -21.769531 17.8125 -20.84375 C 18.195312 -19.925781 18.390625 -18.890625 18.390625 -17.734375 L 18.390625 -7.203125 C 18.390625 -6.078125 18.195312 -5.046875 17.8125 -4.109375 C 17.4375 -3.171875 16.894531 -2.375 16.1875 -1.71875 C 15.488281 -1.0625 14.644531 -0.550781 13.65625 -0.1875 C 12.675781 0.164062 11.585938 0.34375 10.390625 0.34375 C 9.171875 0.34375 8.066406 0.164062 7.078125 -0.1875 C 6.097656 -0.550781 5.257812 -1.0625 4.5625 -1.71875 C 3.875 -2.375 3.335938 -3.171875 2.953125 -4.109375 C 2.578125 -5.046875 2.390625 -6.078125 2.390625 -7.203125 Z M 2.390625 -17.734375 "/></g></g></g><g fill="#ffffff" fill-opacity="1"><g transform="translate(206.79331, 220.035967)"><g><path d="M 7.34375 -24.9375 L 7.34375 -3.5 L 18.609375 -3.5 L 18.609375 0 L 3.53125 0 L 3.53125 -24.9375 Z M 7.34375 -24.9375 "/></g></g></g><g fill="#ffffff" fill-opacity="1"><g transform="translate(232.212432, 220.035967)"><g><path d="M 1.140625 0 L 7.890625 -24.9375 L 13.09375 -24.9375 L 19.640625 0 L 15.6875 0 L 14.09375 -6.609375 L 6.65625 -6.609375 L 5.0625 0 Z M 7.40625 -9.671875 L 13.34375 -9.671875 L 11.078125 -19.015625 C 10.960938 -19.453125 10.867188 -19.875 10.796875 -20.28125 C 10.734375 -20.6875 10.679688 -21.050781 10.640625 -21.375 C 10.585938 -21.738281 10.539062 -22.082031 10.5 -22.40625 L 10.328125 -22.40625 C 10.273438 -22.082031 10.21875 -21.738281 10.15625 -21.375 C 10.101562 -21.050781 10.035156 -20.6875 9.953125 -20.28125 C 9.878906 -19.875 9.785156 -19.453125 9.671875 -19.015625 Z M 7.40625 -9.671875 "/></g></g></g><g fill="#ffffff" fill-opacity="1"><g transform="translate(257.631555, 220.035967)"><g><path d="M 2.84375 -24.9375 L 10.90625 -24.9375 C 12.113281 -24.9375 13.207031 -24.757812 14.1875 -24.40625 C 15.164062 -24.050781 16 -23.554688 16.6875 -22.921875 C 17.382812 -22.285156 17.921875 -21.507812 18.296875 -20.59375 C 18.679688 -19.675781 18.875 -18.664062 18.875 -17.5625 C 18.875 -15.875 18.445312 -14.429688 17.59375 -13.234375 C 16.738281 -12.035156 15.570312 -11.179688 14.09375 -10.671875 L 19.21875 0 L 14.9375 0 L 10.28125 -10.15625 L 6.609375 -10.15625 L 6.609375 0 L 2.84375 0 Z M 6.609375 -13.34375 L 10.90625 -13.34375 C 12.15625 -13.34375 13.148438 -13.71875 13.890625 -14.46875 C 14.628906 -15.21875 15 -16.210938 15 -17.453125 C 15 -18.722656 14.628906 -19.738281 13.890625 -20.5 C 13.148438 -21.269531 12.15625 -21.65625 10.90625 -21.65625 L 6.609375 -21.65625 Z M 6.609375 -13.34375 "/></g></g></g><g fill="#ffffff" fill-opacity="1"><g transform="translate(283.050678, 220.035967)"><g><path d="M 10.390625 0.34375 C 9.191406 0.34375 8.09375 0.179688 7.09375 -0.140625 C 6.101562 -0.460938 5.242188 -0.914062 4.515625 -1.5 C 3.785156 -2.09375 3.210938 -2.816406 2.796875 -3.671875 C 2.390625 -4.523438 2.171875 -5.472656 2.140625 -6.515625 L 6.0625 -6.515625 C 6.101562 -5.429688 6.535156 -4.578125 7.359375 -3.953125 C 8.179688 -3.328125 9.21875 -3.015625 10.46875 -3.015625 C 11.820312 -3.015625 12.882812 -3.316406 13.65625 -3.921875 C 14.4375 -4.535156 14.828125 -5.375 14.828125 -6.4375 C 14.828125 -7.363281 14.535156 -8.171875 13.953125 -8.859375 C 13.378906 -9.554688 12.5625 -10.078125 11.5 -10.421875 L 8.875 -11.296875 C 4.78125 -12.585938 2.734375 -14.988281 2.734375 -18.5 C 2.734375 -20.601562 3.421875 -22.257812 4.796875 -23.46875 C 6.171875 -24.675781 8.070312 -25.28125 10.5 -25.28125 C 11.625 -25.28125 12.65625 -25.125 13.59375 -24.8125 C 14.53125 -24.507812 15.335938 -24.066406 16.015625 -23.484375 C 16.703125 -22.910156 17.242188 -22.207031 17.640625 -21.375 C 18.046875 -20.539062 18.265625 -19.601562 18.296875 -18.5625 L 14.375 -18.5625 C 14.351562 -19.601562 13.96875 -20.429688 13.21875 -21.046875 C 12.46875 -21.660156 11.535156 -21.96875 10.421875 -21.96875 C 9.222656 -21.96875 8.273438 -21.675781 7.578125 -21.09375 C 6.890625 -20.519531 6.546875 -19.75 6.546875 -18.78125 C 6.546875 -17.875 6.804688 -17.113281 7.328125 -16.5 C 7.847656 -15.894531 8.671875 -15.40625 9.796875 -15.03125 L 12.578125 -14.171875 C 14.554688 -13.566406 16.0625 -12.613281 17.09375 -11.3125 C 18.125 -10.007812 18.640625 -8.441406 18.640625 -6.609375 C 18.640625 -5.546875 18.445312 -4.585938 18.0625 -3.734375 C 17.6875 -2.878906 17.140625 -2.148438 16.421875 -1.546875 C 15.703125 -0.953125 14.832031 -0.488281 13.8125 -0.15625 C 12.800781 0.175781 11.660156 0.34375 10.390625 0.34375 Z M 10.390625 0.34375 "/></g></g></g><g fill="#ffffff" fill-opacity="1"><g transform="translate(308.469801, 220.035967)"><g><path d="M 6.65625 -24.9375 L 6.65625 -14.625 L 10.1875 -14.625 L 15.34375 -24.9375 L 19.671875 -24.9375 L 13.546875 -13.03125 L 19.984375 0 L 15.625 0 L 10.1875 -11.21875 L 6.65625 -11.21875 L 6.65625 0 L 2.84375 0 L 2.84375 -24.9375 Z M 6.65625 -24.9375 "/></g></g></g><g fill="#ffffff" fill-opacity="1"><g transform="translate(333.888935, 220.035967)"><g><path d="M 3.046875 0 L 3.046875 -3.328125 L 8.453125 -3.328125 L 8.453125 -21.609375 L 3.046875 -21.609375 L 3.046875 -24.9375 L 17.734375 -24.9375 L 17.734375 -21.609375 L 12.328125 -21.609375 L 12.328125 -3.328125 L 17.734375 -3.328125 L 17.734375 0 Z M 3.046875 0 "/></g></g></g><g fill="#ffffff" fill-opacity="1"><g transform="translate(188.419094, 168.654524)"><g><path d="M 9.390625 -20.921875 C 10.429688 -20.921875 11.382812 -20.769531 12.25 -20.46875 C 13.113281 -20.175781 13.84375 -19.753906 14.4375 -19.203125 C 15.039062 -18.648438 15.503906 -17.976562 15.828125 -17.1875 C 16.160156 -16.40625 16.328125 -15.53125 16.328125 -14.5625 C 16.328125 -13.613281 16.160156 -12.742188 15.828125 -11.953125 C 15.503906 -11.171875 15.035156 -10.503906 14.421875 -9.953125 C 13.816406 -9.398438 13.085938 -8.972656 12.234375 -8.671875 C 11.378906 -8.367188 10.429688 -8.21875 9.390625 -8.21875 L 5.78125 -8.21875 L 5.78125 0 L 2.15625 0 L 2.15625 -20.921875 Z M 5.78125 -17.84375 L 5.78125 -11.3125 L 9.390625 -11.3125 C 10.398438 -11.3125 11.191406 -11.601562 11.765625 -12.1875 C 12.347656 -12.78125 12.640625 -13.570312 12.640625 -14.5625 C 12.640625 -15.550781 12.347656 -16.34375 11.765625 -16.9375 C 11.191406 -17.539062 10.398438 -17.84375 9.390625 -17.84375 Z M 5.78125 -17.84375 "/></g></g></g><g fill="#ffffff" fill-opacity="1"><g transform="translate(211.146398, 168.654524)"><g><path d="M 0.703125 0 L 6.328125 -20.921875 L 11.25 -20.921875 L 16.734375 0 L 12.984375 0 L 11.734375 -5.265625 L 5.671875 -5.265625 L 4.421875 0 Z M 6.359375 -8.140625 L 11.046875 -8.140625 L 9.265625 -15.609375 C 9.191406 -15.953125 9.117188 -16.296875 9.046875 -16.640625 C 8.984375 -16.992188 8.929688 -17.304688 8.890625 -17.578125 C 8.847656 -17.890625 8.8125 -18.203125 8.78125 -18.515625 L 8.625 -18.515625 C 8.59375 -18.203125 8.554688 -17.890625 8.515625 -17.578125 C 8.472656 -17.304688 8.421875 -16.992188 8.359375 -16.640625 C 8.304688 -16.296875 8.234375 -15.953125 8.140625 -15.609375 Z M 6.359375 -8.140625 "/></g></g></g><g fill="#ffffff" fill-opacity="1"><g transform="translate(233.873702, 168.654524)"><g><path d="M 0.46875 -20.921875 L 3.3125 -20.921875 L 4.5 -6.453125 C 4.539062 -6.117188 4.566406 -5.722656 4.578125 -5.265625 C 4.585938 -4.816406 4.59375 -4.367188 4.59375 -3.921875 C 4.613281 -3.421875 4.625 -2.898438 4.625 -2.359375 L 4.9375 -2.359375 C 4.957031 -2.898438 4.976562 -3.421875 5 -3.921875 C 5.019531 -4.367188 5.039062 -4.816406 5.0625 -5.265625 C 5.09375 -5.722656 5.128906 -6.117188 5.171875 -6.453125 L 6.96875 -20.921875 L 10.515625 -20.921875 L 12.234375 -6.453125 C 12.273438 -6.117188 12.304688 -5.722656 12.328125 -5.265625 C 12.347656 -4.816406 12.375 -4.367188 12.40625 -3.921875 C 12.445312 -3.421875 12.476562 -2.898438 12.5 -2.359375 L 12.8125 -2.359375 C 12.8125 -2.898438 12.820312 -3.421875 12.84375 -3.921875 C 12.863281 -4.367188 12.878906 -4.816406 12.890625 -5.265625 C 12.898438 -5.722656 12.914062 -6.117188 12.9375 -6.453125 L 14.09375 -20.921875 L 16.96875 -20.921875 L 14.828125 0 L 10.6875 0 L 9.0625 -14.4375 C 9.03125 -14.882812 9 -15.34375 8.96875 -15.8125 C 8.9375 -16.289062 8.921875 -16.734375 8.921875 -17.140625 C 8.921875 -17.609375 8.921875 -18.066406 8.921875 -18.515625 L 8.609375 -18.515625 C 8.609375 -18.066406 8.609375 -17.609375 8.609375 -17.140625 C 8.585938 -16.734375 8.5625 -16.289062 8.53125 -15.8125 C 8.5 -15.34375 8.457031 -14.882812 8.40625 -14.4375 L 6.625 0 L 2.5625 0 Z M 0.46875 -20.921875 "/></g></g></g><g fill="#ffffff" fill-opacity="1"><g transform="translate(256.601009, 168.654524)"><g><path d="M 2.5 0 L 2.5 -20.921875 L 15.375 -20.921875 L 15.375 -17.734375 L 6.125 -17.734375 L 6.125 -12.359375 L 14.359375 -12.359375 L 14.359375 -9.15625 L 6.125 -9.15625 L 6.125 -3.203125 L 15.375 -3.203125 L 15.375 0 Z M 2.5 0 "/></g></g></g><g fill="#ffffff" fill-opacity="1"><g transform="translate(279.32831, 168.654524)"><g><path d="M 0.578125 -10.03125 L 3.046875 -11.453125 L 3.046875 -20.921875 L 6.6875 -20.921875 L 6.6875 -13.515625 L 11.515625 -16.28125 L 11.515625 -12.9375 L 6.6875 -10.171875 L 6.6875 -3.375 L 15.8125 -3.375 L 15.8125 0 L 3.046875 0 L 3.046875 -8.109375 L 0.578125 -6.6875 Z M 0.578125 -10.03125 "/></g></g></g></svg>